M48
; DRILL file {KiCad (6.0.4)} date Mon May 16 19:35:04 2022
; FORMAT={-:-/ absolute / inch / decimal}
; #@! TF.CreationDate,2022-05-16T19:35:04+01:00
; #@! TF.GenerationSoftware,Kicad,Pcbnew,(6.0.4)
; #@! TF.FileFunction,Plated,1,2,PTH
FMAT,2
INCH
; #@! TA.AperFunction,Plated,PTH,ViaDrill
T1C0.0157
; #@! TA.AperFunction,Plated,PTH,ComponentDrill
T2C0.0157
; #@! TA.AperFunction,Plated,PTH,ComponentDrill
T3C0.0256
; #@! TA.AperFunction,Plated,PTH,ComponentDrill
T4C0.0315
; #@! TA.AperFunction,Plated,PTH,ComponentDrill
T5C0.0591
; #@! TA.AperFunction,Plated,PTH,ComponentDrill
T6C0.0866
%
G90
G05
T1
X4.775Y-2.166
X4.825Y-2.5125
X4.85Y-2.0625
X4.925Y-4.3125
X5.05Y-3.2875
X5.05Y-5.0375
X5.15Y-5.3875
X5.15Y-5.7375
X5.225Y-4.0875
X5.225Y-4.9625
X5.3Y-5.9875
X5.3Y-6.0625
X5.325Y-4.3375
X5.325Y-5.2125
X5.35Y-1.925
X5.375Y-4.4625
X5.4Y-3.4625
X5.525Y-3.5375
X5.775Y-4.3375
X5.775Y-5.2875
X5.8187Y-2.7937
X5.825Y-3.3625
X5.825Y-3.4625
X5.85Y-4.2625
X5.85Y-5.9625
X5.9Y-2.625
X5.925Y-2.85
X5.925Y-3.6125
X5.925Y-5.0375
X5.975Y-2.525
X5.975Y-4.6125
X6.025Y-5.5375
X6.05Y-2.0625
X6.2Y-2.4625
X6.225Y-2.6
X6.225Y-3.5375
X6.225Y-4.4625
X6.225Y-5.3125
X6.225Y-6.0875
X6.3Y-2.4
X6.375Y-2.5875
X6.4Y-2.0
X6.55Y-2.4875
X6.75Y-2.35
T2
X4.2738Y-1.9856
X4.2928Y-1.9397
X4.2928Y-2.0316
X4.31Y-6.0625
X4.3291Y-6.0166
X4.3291Y-6.1084
X4.3388Y-1.9207
X4.3388Y-2.0506
X4.375Y-5.9975
X4.375Y-6.1275
X4.3847Y-1.9397
X4.3847Y-2.0316
X4.4037Y-1.9856
X4.4209Y-6.0166
X4.4209Y-6.1084
X4.44Y-6.0625
X5.06Y-3.8625
X5.0791Y-3.8166
X5.0791Y-3.9084
X5.125Y-3.7975
X5.125Y-3.9275
X5.1709Y-3.8166
X5.1709Y-3.9084
X5.19Y-3.8625
X5.935Y-3.8625
X5.9541Y-3.8166
X5.9541Y-3.9084
X6.0Y-3.7975
X6.0Y-3.9275
X6.0459Y-3.8166
X6.0459Y-3.9084
X6.065Y-3.8625
X6.71Y-1.9875
X6.71Y-6.0625
X6.7291Y-1.9416
X6.7291Y-2.0334
X6.7291Y-6.0166
X6.7291Y-6.1084
X6.775Y-1.9225
X6.775Y-2.0525
X6.775Y-5.9975
X6.775Y-6.1275
X6.8209Y-1.9416
X6.8209Y-2.0334
X6.8209Y-6.0166
X6.8209Y-6.1084
X6.84Y-1.9875
X6.84Y-6.0625
T3
X4.3Y-2.375
X4.3Y-2.425
X4.3Y-2.475
X6.425Y-2.125
X6.4748Y-2.0
X6.475Y-2.125
X6.5248Y-2.0
X6.525Y-2.125
X6.5748Y-2.0
X6.575Y-2.125
T4
X4.525Y-3.3625
X4.525Y-4.2625
X4.525Y-5.1625
X4.525Y-6.0625
X4.825Y-3.3625
X4.825Y-4.2625
X4.825Y-5.1625
X4.825Y-6.0625
X5.425Y-3.3625
X5.425Y-4.2625
X5.425Y-5.1625
X5.425Y-6.0625
X5.725Y-3.3625
X5.725Y-4.2625
X5.725Y-5.1625
X5.725Y-6.0625
X6.325Y-3.3625
X6.325Y-4.2625
X6.325Y-5.1625
X6.325Y-6.0625
X6.625Y-3.3625
X6.625Y-4.2625
X6.625Y-5.1625
X6.625Y-6.0625
T5
X4.525Y-2.8625
X4.525Y-3.7625
X4.525Y-4.6625
X4.525Y-5.5625
X4.775Y-2.7625
X4.775Y-3.6625
X4.775Y-4.5625
X4.775Y-5.4625
X5.425Y-2.8625
X5.425Y-3.7625
X5.425Y-4.6625
X5.425Y-5.5625
X5.675Y-2.7625
X5.675Y-3.6625
X5.675Y-4.5625
X5.675Y-5.4625
X6.325Y-2.8625
X6.325Y-3.7625
X6.325Y-4.6625
X6.325Y-5.5625
X6.575Y-2.7625
X6.575Y-3.6625
X6.575Y-4.5625
X6.575Y-5.4625
T6
X4.3388Y-1.9856
X4.375Y-6.0625
X5.125Y-3.8625
X6.0Y-3.8625
X6.775Y-1.9875
X6.775Y-6.0625
T0
M30
