%TF.GenerationSoftware,KiCad,Pcbnew,(6.0.4)*%
%TF.CreationDate,2022-05-16T19:34:58+01:00*%
%TF.ProjectId,Macropad v2,4d616372-6f70-4616-9420-76322e6b6963,rev?*%
%TF.SameCoordinates,Original*%
%TF.FileFunction,Legend,Top*%
%TF.FilePolarity,Positive*%
%FSLAX46Y46*%
G04 Gerber Fmt 4.6, Leading zero omitted, Abs format (unit mm)*
G04 Created by KiCad (PCBNEW (6.0.4)) date 2022-05-16 19:34:58*
%MOMM*%
%LPD*%
G01*
G04 APERTURE LIST*
%ADD10C,0.600000*%
%ADD11C,0.120000*%
G04 APERTURE END LIST*
D10*
X122938333Y-53244523D02*
X122938333Y-49244523D01*
X124271666Y-52101666D01*
X125605000Y-49244523D01*
X125605000Y-53244523D01*
X129224047Y-53244523D02*
X129224047Y-51149285D01*
X129033571Y-50768333D01*
X128652619Y-50577857D01*
X127890714Y-50577857D01*
X127509761Y-50768333D01*
X129224047Y-53054047D02*
X128843095Y-53244523D01*
X127890714Y-53244523D01*
X127509761Y-53054047D01*
X127319285Y-52673095D01*
X127319285Y-52292142D01*
X127509761Y-51911190D01*
X127890714Y-51720714D01*
X128843095Y-51720714D01*
X129224047Y-51530238D01*
X132843095Y-53054047D02*
X132462142Y-53244523D01*
X131700238Y-53244523D01*
X131319285Y-53054047D01*
X131128809Y-52863571D01*
X130938333Y-52482619D01*
X130938333Y-51339761D01*
X131128809Y-50958809D01*
X131319285Y-50768333D01*
X131700238Y-50577857D01*
X132462142Y-50577857D01*
X132843095Y-50768333D01*
X134557380Y-53244523D02*
X134557380Y-50577857D01*
X134557380Y-51339761D02*
X134747857Y-50958809D01*
X134938333Y-50768333D01*
X135319285Y-50577857D01*
X135700238Y-50577857D01*
X137605000Y-53244523D02*
X137224047Y-53054047D01*
X137033571Y-52863571D01*
X136843095Y-52482619D01*
X136843095Y-51339761D01*
X137033571Y-50958809D01*
X137224047Y-50768333D01*
X137605000Y-50577857D01*
X138176428Y-50577857D01*
X138557380Y-50768333D01*
X138747857Y-50958809D01*
X138938333Y-51339761D01*
X138938333Y-52482619D01*
X138747857Y-52863571D01*
X138557380Y-53054047D01*
X138176428Y-53244523D01*
X137605000Y-53244523D01*
X140652619Y-53244523D02*
X140652619Y-49244523D01*
X142176428Y-49244523D01*
X142557380Y-49435000D01*
X142747857Y-49625476D01*
X142938333Y-50006428D01*
X142938333Y-50577857D01*
X142747857Y-50958809D01*
X142557380Y-51149285D01*
X142176428Y-51339761D01*
X140652619Y-51339761D01*
X146366904Y-53244523D02*
X146366904Y-51149285D01*
X146176428Y-50768333D01*
X145795476Y-50577857D01*
X145033571Y-50577857D01*
X144652619Y-50768333D01*
X146366904Y-53054047D02*
X145985952Y-53244523D01*
X145033571Y-53244523D01*
X144652619Y-53054047D01*
X144462142Y-52673095D01*
X144462142Y-52292142D01*
X144652619Y-51911190D01*
X145033571Y-51720714D01*
X145985952Y-51720714D01*
X146366904Y-51530238D01*
X149985952Y-53244523D02*
X149985952Y-49244523D01*
X149985952Y-53054047D02*
X149605000Y-53244523D01*
X148843095Y-53244523D01*
X148462142Y-53054047D01*
X148271666Y-52863571D01*
X148081190Y-52482619D01*
X148081190Y-51339761D01*
X148271666Y-50958809D01*
X148462142Y-50768333D01*
X148843095Y-50577857D01*
X149605000Y-50577857D01*
X149985952Y-50768333D01*
X154366904Y-49244523D02*
X155700238Y-53244523D01*
X157033571Y-49244523D01*
X158176428Y-49625476D02*
X158366904Y-49435000D01*
X158747857Y-49244523D01*
X159700238Y-49244523D01*
X160081190Y-49435000D01*
X160271666Y-49625476D01*
X160462142Y-50006428D01*
X160462142Y-50387380D01*
X160271666Y-50958809D01*
X157985952Y-53244523D01*
X160462142Y-53244523D01*
D11*
%TO.C,D16*%
X120265000Y-86527500D02*
X120265000Y-84287500D01*
X120145000Y-86527500D02*
X120145000Y-84287500D01*
X120865000Y-84287500D02*
X116625000Y-84287500D01*
X115975000Y-85407500D02*
X116625000Y-85407500D01*
X120865000Y-86527500D02*
X120865000Y-84287500D01*
X120025000Y-86527500D02*
X120025000Y-84287500D01*
X121515000Y-85407500D02*
X120865000Y-85407500D01*
X116625000Y-86527500D02*
X120865000Y-86527500D01*
X116625000Y-84287500D02*
X116625000Y-86527500D01*
%TO.C,D12*%
X149385000Y-129647500D02*
X156685000Y-129647500D01*
X156685000Y-135147500D02*
X156685000Y-133997500D01*
X149385000Y-135147500D02*
X156685000Y-135147500D01*
%TO.C,SW4*%
X125845000Y-136727500D02*
X111645000Y-136727500D01*
X111645000Y-136727500D02*
X111645000Y-150927500D01*
X125845000Y-150927500D02*
X125845000Y-136727500D01*
X111645000Y-150927500D02*
X125845000Y-150927500D01*
%TO.C,D23*%
X143725000Y-155107500D02*
X143725000Y-152867500D01*
X142885000Y-155107500D02*
X142885000Y-152867500D01*
X144375000Y-153987500D02*
X143725000Y-153987500D01*
X139485000Y-152867500D02*
X139485000Y-155107500D01*
X139485000Y-155107500D02*
X143725000Y-155107500D01*
X143725000Y-152867500D02*
X139485000Y-152867500D01*
X143005000Y-155107500D02*
X143005000Y-152867500D01*
X143125000Y-155107500D02*
X143125000Y-152867500D01*
X138835000Y-153987500D02*
X139485000Y-153987500D01*
%TO.C,D19*%
X116625000Y-152867500D02*
X116625000Y-155107500D01*
X121515000Y-153987500D02*
X120865000Y-153987500D01*
X120025000Y-155107500D02*
X120025000Y-152867500D01*
X120865000Y-155107500D02*
X120865000Y-152867500D01*
X116625000Y-155107500D02*
X120865000Y-155107500D01*
X115975000Y-153987500D02*
X116625000Y-153987500D01*
X120145000Y-155107500D02*
X120145000Y-152867500D01*
X120865000Y-152867500D02*
X116625000Y-152867500D01*
X120265000Y-155107500D02*
X120265000Y-152867500D01*
%TO.C,D6*%
X168115000Y-61487500D02*
X168115000Y-60337500D01*
X160815000Y-55987500D02*
X168115000Y-55987500D01*
X160815000Y-61487500D02*
X168115000Y-61487500D01*
%TO.C,D7*%
X126525000Y-89427500D02*
X133825000Y-89427500D01*
X133825000Y-89427500D02*
X133825000Y-88277500D01*
X126525000Y-83927500D02*
X133825000Y-83927500D01*
%TO.C,D11*%
X133825000Y-135147500D02*
X133825000Y-133997500D01*
X126525000Y-135147500D02*
X133825000Y-135147500D01*
X126525000Y-129647500D02*
X133825000Y-129647500D01*
%TO.C,J1*%
X108110000Y-60325000D02*
X108110000Y-59565000D01*
X109783471Y-61085000D02*
X110330000Y-61085000D01*
X110330000Y-61085000D02*
X110330000Y-63560000D01*
X108110000Y-61085000D02*
X108656529Y-61085000D01*
X108110000Y-63560000D02*
X108912470Y-63560000D01*
X108110000Y-59565000D02*
X109220000Y-59565000D01*
X108110000Y-61085000D02*
X108110000Y-63560000D01*
X109527530Y-63560000D02*
X110330000Y-63560000D01*
%TO.C,D13*%
X133825000Y-155467500D02*
X133825000Y-154317500D01*
X126525000Y-149967500D02*
X133825000Y-149967500D01*
X126525000Y-155467500D02*
X133825000Y-155467500D01*
%TO.C,D10*%
X149385000Y-112287500D02*
X156685000Y-112287500D01*
X149385000Y-106787500D02*
X156685000Y-106787500D01*
X156685000Y-112287500D02*
X156685000Y-111137500D01*
%TO.C,D21*%
X139485000Y-107147500D02*
X139485000Y-109387500D01*
X143005000Y-109387500D02*
X143005000Y-107147500D01*
X139485000Y-109387500D02*
X143725000Y-109387500D01*
X143725000Y-109387500D02*
X143725000Y-107147500D01*
X142885000Y-109387500D02*
X142885000Y-107147500D01*
X143125000Y-109387500D02*
X143125000Y-107147500D01*
X143725000Y-107147500D02*
X139485000Y-107147500D01*
X144375000Y-108267500D02*
X143725000Y-108267500D01*
X138835000Y-108267500D02*
X139485000Y-108267500D01*
%TO.C,SW11*%
X157365000Y-128067500D02*
X171565000Y-128067500D01*
X157365000Y-113867500D02*
X157365000Y-128067500D01*
X171565000Y-128067500D02*
X171565000Y-113867500D01*
X171565000Y-113867500D02*
X157365000Y-113867500D01*
%TO.C,D8*%
X149385000Y-89427500D02*
X156685000Y-89427500D01*
X156685000Y-89427500D02*
X156685000Y-88277500D01*
X149385000Y-83927500D02*
X156685000Y-83927500D01*
%TO.C,SW8*%
X148705000Y-136727500D02*
X134505000Y-136727500D01*
X134505000Y-150927500D02*
X148705000Y-150927500D01*
X134505000Y-136727500D02*
X134505000Y-150927500D01*
X148705000Y-150927500D02*
X148705000Y-136727500D01*
%TO.C,D3*%
X140175000Y-61487500D02*
X140175000Y-60337500D01*
X132875000Y-61487500D02*
X140175000Y-61487500D01*
X132875000Y-55987500D02*
X140175000Y-55987500D01*
%TO.C,D22*%
X143725000Y-130007500D02*
X139485000Y-130007500D01*
X143125000Y-132247500D02*
X143125000Y-130007500D01*
X139485000Y-132247500D02*
X143725000Y-132247500D01*
X143005000Y-132247500D02*
X143005000Y-130007500D01*
X139485000Y-130007500D02*
X139485000Y-132247500D01*
X144375000Y-131127500D02*
X143725000Y-131127500D01*
X142885000Y-132247500D02*
X142885000Y-130007500D01*
X138835000Y-131127500D02*
X139485000Y-131127500D01*
X143725000Y-132247500D02*
X143725000Y-130007500D01*
%TO.C,J2*%
X163700000Y-51910000D02*
X163700000Y-50800000D01*
X165220000Y-49690000D02*
X167695000Y-49690000D01*
X165220000Y-50236529D02*
X165220000Y-49690000D01*
X167695000Y-50492470D02*
X167695000Y-49690000D01*
X165220000Y-51910000D02*
X167695000Y-51910000D01*
X164460000Y-51910000D02*
X163700000Y-51910000D01*
X167695000Y-51910000D02*
X167695000Y-51107530D01*
X165220000Y-51910000D02*
X165220000Y-51363471D01*
%TO.C,D24*%
X165985000Y-86527500D02*
X165985000Y-84287500D01*
X166585000Y-84287500D02*
X162345000Y-84287500D01*
X162345000Y-84287500D02*
X162345000Y-86527500D01*
X165865000Y-86527500D02*
X165865000Y-84287500D01*
X166585000Y-86527500D02*
X166585000Y-84287500D01*
X161695000Y-85407500D02*
X162345000Y-85407500D01*
X162345000Y-86527500D02*
X166585000Y-86527500D01*
X167235000Y-85407500D02*
X166585000Y-85407500D01*
X165745000Y-86527500D02*
X165745000Y-84287500D01*
%TO.C,D9*%
X133825000Y-112287500D02*
X133825000Y-111137500D01*
X126525000Y-112287500D02*
X133825000Y-112287500D01*
X126525000Y-106787500D02*
X133825000Y-106787500D01*
%TO.C,D17*%
X120265000Y-109387500D02*
X120265000Y-107147500D01*
X116625000Y-109387500D02*
X120865000Y-109387500D01*
X115975000Y-108267500D02*
X116625000Y-108267500D01*
X120145000Y-109387500D02*
X120145000Y-107147500D01*
X116625000Y-107147500D02*
X116625000Y-109387500D01*
X120865000Y-107147500D02*
X116625000Y-107147500D01*
X120865000Y-109387500D02*
X120865000Y-107147500D01*
X120025000Y-109387500D02*
X120025000Y-107147500D01*
X121515000Y-108267500D02*
X120865000Y-108267500D01*
%TO.C,D27*%
X161695000Y-153987500D02*
X162345000Y-153987500D01*
X165745000Y-155107500D02*
X165745000Y-152867500D01*
X166585000Y-155107500D02*
X166585000Y-152867500D01*
X167235000Y-153987500D02*
X166585000Y-153987500D01*
X165865000Y-155107500D02*
X165865000Y-152867500D01*
X162345000Y-152867500D02*
X162345000Y-155107500D01*
X162345000Y-155107500D02*
X166585000Y-155107500D01*
X165985000Y-155107500D02*
X165985000Y-152867500D01*
X166585000Y-152867500D02*
X162345000Y-152867500D01*
%TO.C,SW9*%
X171565000Y-68147500D02*
X157365000Y-68147500D01*
X157365000Y-82347500D02*
X171565000Y-82347500D01*
X157365000Y-68147500D02*
X157365000Y-82347500D01*
X171565000Y-82347500D02*
X171565000Y-68147500D01*
%TO.C,D4*%
X149700000Y-61487500D02*
X149700000Y-60337500D01*
X142400000Y-61487500D02*
X149700000Y-61487500D01*
X142400000Y-55987500D02*
X149700000Y-55987500D01*
%TO.C,D25*%
X161695000Y-108267500D02*
X162345000Y-108267500D01*
X166585000Y-109387500D02*
X166585000Y-107147500D01*
X167235000Y-108267500D02*
X166585000Y-108267500D01*
X166585000Y-107147500D02*
X162345000Y-107147500D01*
X162345000Y-107147500D02*
X162345000Y-109387500D01*
X165865000Y-109387500D02*
X165865000Y-107147500D01*
X165745000Y-109387500D02*
X165745000Y-107147500D01*
X162345000Y-109387500D02*
X166585000Y-109387500D01*
X165985000Y-109387500D02*
X165985000Y-107147500D01*
%TO.C,D26*%
X166585000Y-132247500D02*
X166585000Y-130007500D01*
X162345000Y-132247500D02*
X166585000Y-132247500D01*
X165865000Y-132247500D02*
X165865000Y-130007500D01*
X166585000Y-130007500D02*
X162345000Y-130007500D01*
X165745000Y-132247500D02*
X165745000Y-130007500D01*
X167235000Y-131127500D02*
X166585000Y-131127500D01*
X165985000Y-132247500D02*
X165985000Y-130007500D01*
X161695000Y-131127500D02*
X162345000Y-131127500D01*
X162345000Y-130007500D02*
X162345000Y-132247500D01*
%TO.C,SW7*%
X148705000Y-128067500D02*
X148705000Y-113867500D01*
X148705000Y-113867500D02*
X134505000Y-113867500D01*
X134505000Y-128067500D02*
X148705000Y-128067500D01*
X134505000Y-113867500D02*
X134505000Y-128067500D01*
%TO.C,SW2*%
X111645000Y-91007500D02*
X111645000Y-105207500D01*
X111645000Y-105207500D02*
X125845000Y-105207500D01*
X125845000Y-105207500D02*
X125845000Y-91007500D01*
X125845000Y-91007500D02*
X111645000Y-91007500D01*
%TO.C,SW12*%
X171565000Y-136727500D02*
X157365000Y-136727500D01*
X171565000Y-150927500D02*
X171565000Y-136727500D01*
X157365000Y-150927500D02*
X171565000Y-150927500D01*
X157365000Y-136727500D02*
X157365000Y-150927500D01*
%TO.C,SW6*%
X148705000Y-105207500D02*
X148705000Y-91007500D01*
X148705000Y-91007500D02*
X134505000Y-91007500D01*
X134505000Y-105207500D02*
X148705000Y-105207500D01*
X134505000Y-91007500D02*
X134505000Y-105207500D01*
%TO.C,D2*%
X123985000Y-55987500D02*
X131285000Y-55987500D01*
X123985000Y-61487500D02*
X131285000Y-61487500D01*
X131285000Y-61487500D02*
X131285000Y-60337500D01*
%TO.C,D20*%
X143725000Y-84287500D02*
X139485000Y-84287500D01*
X139485000Y-86527500D02*
X143725000Y-86527500D01*
X142885000Y-86527500D02*
X142885000Y-84287500D01*
X143125000Y-86527500D02*
X143125000Y-84287500D01*
X139485000Y-84287500D02*
X139485000Y-86527500D01*
X143005000Y-86527500D02*
X143005000Y-84287500D01*
X138835000Y-85407500D02*
X139485000Y-85407500D01*
X144375000Y-85407500D02*
X143725000Y-85407500D01*
X143725000Y-86527500D02*
X143725000Y-84287500D01*
%TO.C,SW3*%
X125845000Y-113867500D02*
X111645000Y-113867500D01*
X111645000Y-113867500D02*
X111645000Y-128067500D01*
X125845000Y-128067500D02*
X125845000Y-113867500D01*
X111645000Y-128067500D02*
X125845000Y-128067500D01*
%TO.C,SW5*%
X148705000Y-68147500D02*
X134505000Y-68147500D01*
X134505000Y-82347500D02*
X148705000Y-82347500D01*
X134505000Y-68147500D02*
X134505000Y-82347500D01*
X148705000Y-82347500D02*
X148705000Y-68147500D01*
%TO.C,J3*%
X162435000Y-55085000D02*
X162435000Y-53975000D01*
X167700000Y-53667470D02*
X167700000Y-52865000D01*
X163955000Y-55085000D02*
X163955000Y-54538471D01*
X163195000Y-55085000D02*
X162435000Y-55085000D01*
X167700000Y-55085000D02*
X167700000Y-54282530D01*
X163955000Y-55085000D02*
X167700000Y-55085000D01*
X163955000Y-52865000D02*
X167700000Y-52865000D01*
X163955000Y-53411529D02*
X163955000Y-52865000D01*
%TO.C,D18*%
X120265000Y-132247500D02*
X120265000Y-130007500D01*
X116625000Y-132247500D02*
X120865000Y-132247500D01*
X120865000Y-132247500D02*
X120865000Y-130007500D01*
X120145000Y-132247500D02*
X120145000Y-130007500D01*
X115975000Y-131127500D02*
X116625000Y-131127500D01*
X120865000Y-130007500D02*
X116625000Y-130007500D01*
X116625000Y-130007500D02*
X116625000Y-132247500D01*
X121515000Y-131127500D02*
X120865000Y-131127500D01*
X120025000Y-132247500D02*
X120025000Y-130007500D01*
%TO.C,SW10*%
X171565000Y-91007500D02*
X157365000Y-91007500D01*
X157365000Y-105207500D02*
X171565000Y-105207500D01*
X171565000Y-105207500D02*
X171565000Y-91007500D01*
X157365000Y-91007500D02*
X157365000Y-105207500D01*
%TO.C,D5*%
X151290000Y-61487500D02*
X158590000Y-61487500D01*
X158590000Y-61487500D02*
X158590000Y-60337500D01*
X151290000Y-55987500D02*
X158590000Y-55987500D01*
%TO.C,D14*%
X156685000Y-155467500D02*
X156685000Y-154317500D01*
X149385000Y-149967500D02*
X156685000Y-149967500D01*
X149385000Y-155467500D02*
X156685000Y-155467500D01*
%TO.C,SW1*%
X125845000Y-82347500D02*
X125845000Y-68147500D01*
X111645000Y-82347500D02*
X125845000Y-82347500D01*
X111645000Y-68147500D02*
X111645000Y-82347500D01*
X125845000Y-68147500D02*
X111645000Y-68147500D01*
%TO.C,D1*%
X115095000Y-55987500D02*
X122395000Y-55987500D01*
X122395000Y-61487500D02*
X122395000Y-60337500D01*
X115095000Y-61487500D02*
X122395000Y-61487500D01*
%TD*%
M02*
