%TF.GenerationSoftware,KiCad,Pcbnew,(6.0.4)*%
%TF.CreationDate,2022-05-16T19:34:58+01:00*%
%TF.ProjectId,Macropad v2,4d616372-6f70-4616-9420-76322e6b6963,rev?*%
%TF.SameCoordinates,Original*%
%TF.FileFunction,Paste,Top*%
%TF.FilePolarity,Positive*%
%FSLAX46Y46*%
G04 Gerber Fmt 4.6, Leading zero omitted, Abs format (unit mm)*
G04 Created by KiCad (PCBNEW (6.0.4)) date 2022-05-16 19:34:58*
%MOMM*%
%LPD*%
G01*
G04 APERTURE LIST*
%ADD10R,1.500000X1.000000*%
G04 APERTURE END LIST*
D10*
%TO.C,D12*%
X150585000Y-130797500D03*
X150585000Y-133997500D03*
X155485000Y-133997500D03*
X155485000Y-130797500D03*
%TD*%
%TO.C,D6*%
X162015000Y-57137500D03*
X162015000Y-60337500D03*
X166915000Y-60337500D03*
X166915000Y-57137500D03*
%TD*%
%TO.C,D7*%
X127725000Y-85077500D03*
X127725000Y-88277500D03*
X132625000Y-88277500D03*
X132625000Y-85077500D03*
%TD*%
%TO.C,D11*%
X127725000Y-130797500D03*
X127725000Y-133997500D03*
X132625000Y-133997500D03*
X132625000Y-130797500D03*
%TD*%
%TO.C,D13*%
X127725000Y-151117500D03*
X127725000Y-154317500D03*
X132625000Y-154317500D03*
X132625000Y-151117500D03*
%TD*%
%TO.C,D10*%
X150585000Y-107937500D03*
X150585000Y-111137500D03*
X155485000Y-111137500D03*
X155485000Y-107937500D03*
%TD*%
%TO.C,D8*%
X150585000Y-85077500D03*
X150585000Y-88277500D03*
X155485000Y-88277500D03*
X155485000Y-85077500D03*
%TD*%
%TO.C,D3*%
X134075000Y-57137500D03*
X134075000Y-60337500D03*
X138975000Y-60337500D03*
X138975000Y-57137500D03*
%TD*%
%TO.C,D9*%
X127725000Y-107937500D03*
X127725000Y-111137500D03*
X132625000Y-111137500D03*
X132625000Y-107937500D03*
%TD*%
%TO.C,D4*%
X143600000Y-57137500D03*
X143600000Y-60337500D03*
X148500000Y-60337500D03*
X148500000Y-57137500D03*
%TD*%
%TO.C,D2*%
X125185000Y-57137500D03*
X125185000Y-60337500D03*
X130085000Y-60337500D03*
X130085000Y-57137500D03*
%TD*%
%TO.C,D5*%
X152490000Y-57137500D03*
X152490000Y-60337500D03*
X157390000Y-60337500D03*
X157390000Y-57137500D03*
%TD*%
%TO.C,D14*%
X150585000Y-151117500D03*
X150585000Y-154317500D03*
X155485000Y-154317500D03*
X155485000Y-151117500D03*
%TD*%
%TO.C,D1*%
X116295000Y-57137500D03*
X116295000Y-60337500D03*
X121195000Y-60337500D03*
X121195000Y-57137500D03*
%TD*%
M02*
