%TF.GenerationSoftware,KiCad,Pcbnew,(6.0.4)*%
%TF.CreationDate,2022-05-16T19:34:58+01:00*%
%TF.ProjectId,Macropad v2,4d616372-6f70-4616-9420-76322e6b6963,rev?*%
%TF.SameCoordinates,Original*%
%TF.FileFunction,Legend,Bot*%
%TF.FilePolarity,Positive*%
%FSLAX46Y46*%
G04 Gerber Fmt 4.6, Leading zero omitted, Abs format (unit mm)*
G04 Created by KiCad (PCBNEW (6.0.4)) date 2022-05-16 19:34:58*
%MOMM*%
%LPD*%
G01*
G04 APERTURE LIST*
%ADD10C,0.250000*%
%ADD11C,0.150000*%
%ADD12C,0.300000*%
%ADD13C,0.101600*%
%ADD14C,0.066040*%
%ADD15C,0.127000*%
%ADD16C,0.254000*%
G04 APERTURE END LIST*
D10*
X147147857Y-135232857D02*
X147147857Y-136090000D01*
X147205000Y-136261428D01*
X147319285Y-136375714D01*
X147490714Y-136432857D01*
X147605000Y-136432857D01*
X146005000Y-136432857D02*
X146576428Y-136432857D01*
X146576428Y-135232857D01*
X144919285Y-136318571D02*
X144976428Y-136375714D01*
X145147857Y-136432857D01*
X145262142Y-136432857D01*
X145433571Y-136375714D01*
X145547857Y-136261428D01*
X145605000Y-136147142D01*
X145662142Y-135918571D01*
X145662142Y-135747142D01*
X145605000Y-135518571D01*
X145547857Y-135404285D01*
X145433571Y-135290000D01*
X145262142Y-135232857D01*
X145147857Y-135232857D01*
X144976428Y-135290000D01*
X144919285Y-135347142D01*
X144062142Y-135232857D02*
X144062142Y-136090000D01*
X144119285Y-136261428D01*
X144233571Y-136375714D01*
X144405000Y-136432857D01*
X144519285Y-136432857D01*
X142919285Y-136432857D02*
X143490714Y-136432857D01*
X143490714Y-135232857D01*
X141833571Y-136318571D02*
X141890714Y-136375714D01*
X142062142Y-136432857D01*
X142176428Y-136432857D01*
X142347857Y-136375714D01*
X142462142Y-136261428D01*
X142519285Y-136147142D01*
X142576428Y-135918571D01*
X142576428Y-135747142D01*
X142519285Y-135518571D01*
X142462142Y-135404285D01*
X142347857Y-135290000D01*
X142176428Y-135232857D01*
X142062142Y-135232857D01*
X141890714Y-135290000D01*
X141833571Y-135347142D01*
X140976428Y-135232857D02*
X140976428Y-136090000D01*
X141033571Y-136261428D01*
X141147857Y-136375714D01*
X141319285Y-136432857D01*
X141433571Y-136432857D01*
X139833571Y-136432857D02*
X140405000Y-136432857D01*
X140405000Y-135232857D01*
X138747857Y-136318571D02*
X138805000Y-136375714D01*
X138976428Y-136432857D01*
X139090714Y-136432857D01*
X139262142Y-136375714D01*
X139376428Y-136261428D01*
X139433571Y-136147142D01*
X139490714Y-135918571D01*
X139490714Y-135747142D01*
X139433571Y-135518571D01*
X139376428Y-135404285D01*
X139262142Y-135290000D01*
X139090714Y-135232857D01*
X138976428Y-135232857D01*
X138805000Y-135290000D01*
X138747857Y-135347142D01*
X137890714Y-135232857D02*
X137890714Y-136090000D01*
X137947857Y-136261428D01*
X138062142Y-136375714D01*
X138233571Y-136432857D01*
X138347857Y-136432857D01*
X136747857Y-136432857D02*
X137319285Y-136432857D01*
X137319285Y-135232857D01*
X135662142Y-136318571D02*
X135719285Y-136375714D01*
X135890714Y-136432857D01*
X136005000Y-136432857D01*
X136176428Y-136375714D01*
X136290714Y-136261428D01*
X136347857Y-136147142D01*
X136405000Y-135918571D01*
X136405000Y-135747142D01*
X136347857Y-135518571D01*
X136290714Y-135404285D01*
X136176428Y-135290000D01*
X136005000Y-135232857D01*
X135890714Y-135232857D01*
X135719285Y-135290000D01*
X135662142Y-135347142D01*
D11*
X161647142Y-50395238D02*
X161694761Y-50347619D01*
X161742380Y-50204761D01*
X161742380Y-50109523D01*
X161694761Y-49966666D01*
X161599523Y-49871428D01*
X161504285Y-49823809D01*
X161313809Y-49776190D01*
X161170952Y-49776190D01*
X160980476Y-49823809D01*
X160885238Y-49871428D01*
X160790000Y-49966666D01*
X160742380Y-50109523D01*
X160742380Y-50204761D01*
X160790000Y-50347619D01*
X160837619Y-50395238D01*
X161742380Y-50966666D02*
X161694761Y-50871428D01*
X161647142Y-50823809D01*
X161551904Y-50776190D01*
X161266190Y-50776190D01*
X161170952Y-50823809D01*
X161123333Y-50871428D01*
X161075714Y-50966666D01*
X161075714Y-51109523D01*
X161123333Y-51204761D01*
X161170952Y-51252380D01*
X161266190Y-51300000D01*
X161551904Y-51300000D01*
X161647142Y-51252380D01*
X161694761Y-51204761D01*
X161742380Y-51109523D01*
X161742380Y-50966666D01*
X161742380Y-51871428D02*
X161694761Y-51776190D01*
X161599523Y-51728571D01*
X160742380Y-51728571D01*
X110497857Y-58872380D02*
X110974047Y-58872380D01*
X110974047Y-57872380D01*
X110164523Y-58348571D02*
X109831190Y-58348571D01*
X109688333Y-58872380D02*
X110164523Y-58872380D01*
X110164523Y-57872380D01*
X109688333Y-57872380D01*
X109259761Y-58872380D02*
X109259761Y-57872380D01*
X109021666Y-57872380D01*
X108878809Y-57920000D01*
X108783571Y-58015238D01*
X108735952Y-58110476D01*
X108688333Y-58300952D01*
X108688333Y-58443809D01*
X108735952Y-58634285D01*
X108783571Y-58729523D01*
X108878809Y-58824761D01*
X109021666Y-58872380D01*
X109259761Y-58872380D01*
X161742380Y-53308333D02*
X161266190Y-52975000D01*
X161742380Y-52736904D02*
X160742380Y-52736904D01*
X160742380Y-53117857D01*
X160790000Y-53213095D01*
X160837619Y-53260714D01*
X160932857Y-53308333D01*
X161075714Y-53308333D01*
X161170952Y-53260714D01*
X161218571Y-53213095D01*
X161266190Y-53117857D01*
X161266190Y-52736904D01*
X161742380Y-53879761D02*
X161694761Y-53784523D01*
X161647142Y-53736904D01*
X161551904Y-53689285D01*
X161266190Y-53689285D01*
X161170952Y-53736904D01*
X161123333Y-53784523D01*
X161075714Y-53879761D01*
X161075714Y-54022619D01*
X161123333Y-54117857D01*
X161170952Y-54165476D01*
X161266190Y-54213095D01*
X161551904Y-54213095D01*
X161647142Y-54165476D01*
X161694761Y-54117857D01*
X161742380Y-54022619D01*
X161742380Y-53879761D01*
X161075714Y-54546428D02*
X161742380Y-54736904D01*
X161266190Y-54927380D01*
X161742380Y-55117857D01*
X161075714Y-55308333D01*
X163529904Y-52933571D02*
X163529904Y-52476428D01*
X163529904Y-52705000D02*
X162729904Y-52705000D01*
X162844190Y-52628809D01*
X162920380Y-52552619D01*
X162958476Y-52476428D01*
X164094095Y-52476428D02*
X164056000Y-52514523D01*
X164017904Y-52590714D01*
X164017904Y-52781190D01*
X164056000Y-52857380D01*
X164094095Y-52895476D01*
X164170285Y-52933571D01*
X164246476Y-52933571D01*
X164360761Y-52895476D01*
X164817904Y-52438333D01*
X164817904Y-52933571D01*
X165305904Y-52438333D02*
X165305904Y-52933571D01*
X165610666Y-52666904D01*
X165610666Y-52781190D01*
X165648761Y-52857380D01*
X165686857Y-52895476D01*
X165763047Y-52933571D01*
X165953523Y-52933571D01*
X166029714Y-52895476D01*
X166067809Y-52857380D01*
X166105904Y-52781190D01*
X166105904Y-52552619D01*
X166067809Y-52476428D01*
X166029714Y-52438333D01*
X166860571Y-52857380D02*
X167393904Y-52857380D01*
X166555809Y-52666904D02*
X167127238Y-52476428D01*
X167127238Y-52971666D01*
X111239285Y-59868904D02*
X111620238Y-59868904D01*
X111658333Y-60249857D01*
X111620238Y-60211761D01*
X111544047Y-60173666D01*
X111353571Y-60173666D01*
X111277380Y-60211761D01*
X111239285Y-60249857D01*
X111201190Y-60326047D01*
X111201190Y-60516523D01*
X111239285Y-60592714D01*
X111277380Y-60630809D01*
X111353571Y-60668904D01*
X111544047Y-60668904D01*
X111620238Y-60630809D01*
X111658333Y-60592714D01*
X110934523Y-60135571D02*
X110744047Y-60668904D01*
X110553571Y-60135571D01*
X112286904Y-61956904D02*
X112286904Y-61156904D01*
X112096428Y-61156904D01*
X111982142Y-61195000D01*
X111905952Y-61271190D01*
X111867857Y-61347380D01*
X111829761Y-61499761D01*
X111829761Y-61614047D01*
X111867857Y-61766428D01*
X111905952Y-61842619D01*
X111982142Y-61918809D01*
X112096428Y-61956904D01*
X112286904Y-61956904D01*
X111144047Y-61956904D02*
X111144047Y-61537857D01*
X111182142Y-61461666D01*
X111258333Y-61423571D01*
X111410714Y-61423571D01*
X111486904Y-61461666D01*
X111144047Y-61918809D02*
X111220238Y-61956904D01*
X111410714Y-61956904D01*
X111486904Y-61918809D01*
X111525000Y-61842619D01*
X111525000Y-61766428D01*
X111486904Y-61690238D01*
X111410714Y-61652142D01*
X111220238Y-61652142D01*
X111144047Y-61614047D01*
X110877380Y-61423571D02*
X110572619Y-61423571D01*
X110763095Y-61156904D02*
X110763095Y-61842619D01*
X110725000Y-61918809D01*
X110648809Y-61956904D01*
X110572619Y-61956904D01*
X109963095Y-61956904D02*
X109963095Y-61537857D01*
X110001190Y-61461666D01*
X110077380Y-61423571D01*
X110229761Y-61423571D01*
X110305952Y-61461666D01*
X109963095Y-61918809D02*
X110039285Y-61956904D01*
X110229761Y-61956904D01*
X110305952Y-61918809D01*
X110344047Y-61842619D01*
X110344047Y-61766428D01*
X110305952Y-61690238D01*
X110229761Y-61652142D01*
X110039285Y-61652142D01*
X109963095Y-61614047D01*
X111734523Y-62483000D02*
X111810714Y-62444904D01*
X111925000Y-62444904D01*
X112039285Y-62483000D01*
X112115476Y-62559190D01*
X112153571Y-62635380D01*
X112191666Y-62787761D01*
X112191666Y-62902047D01*
X112153571Y-63054428D01*
X112115476Y-63130619D01*
X112039285Y-63206809D01*
X111925000Y-63244904D01*
X111848809Y-63244904D01*
X111734523Y-63206809D01*
X111696428Y-63168714D01*
X111696428Y-62902047D01*
X111848809Y-62902047D01*
X111353571Y-63244904D02*
X111353571Y-62444904D01*
X110896428Y-63244904D01*
X110896428Y-62444904D01*
X110515476Y-63244904D02*
X110515476Y-62444904D01*
X110325000Y-62444904D01*
X110210714Y-62483000D01*
X110134523Y-62559190D01*
X110096428Y-62635380D01*
X110058333Y-62787761D01*
X110058333Y-62902047D01*
X110096428Y-63054428D01*
X110134523Y-63130619D01*
X110210714Y-63206809D01*
X110325000Y-63244904D01*
X110515476Y-63244904D01*
D12*
X144157380Y-147372809D02*
X144690714Y-146610904D01*
X145071666Y-147372809D02*
X145071666Y-145772809D01*
X144462142Y-145772809D01*
X144309761Y-145849000D01*
X144233571Y-145925190D01*
X144157380Y-146077571D01*
X144157380Y-146306142D01*
X144233571Y-146458523D01*
X144309761Y-146534714D01*
X144462142Y-146610904D01*
X145071666Y-146610904D01*
X142862142Y-147296619D02*
X143014523Y-147372809D01*
X143319285Y-147372809D01*
X143471666Y-147296619D01*
X143547857Y-147144238D01*
X143547857Y-146534714D01*
X143471666Y-146382333D01*
X143319285Y-146306142D01*
X143014523Y-146306142D01*
X142862142Y-146382333D01*
X142785952Y-146534714D01*
X142785952Y-146687095D01*
X143547857Y-146839476D01*
X142252619Y-146306142D02*
X141871666Y-147372809D01*
X141490714Y-146306142D01*
X140881190Y-147220428D02*
X140805000Y-147296619D01*
X140881190Y-147372809D01*
X140957380Y-147296619D01*
X140881190Y-147220428D01*
X140881190Y-147372809D01*
X138062142Y-147372809D02*
X138976428Y-147372809D01*
X138519285Y-147372809D02*
X138519285Y-145772809D01*
X138671666Y-146001380D01*
X138824047Y-146153761D01*
X138976428Y-146229952D01*
X168805000Y-149491666D02*
X168043095Y-149491666D01*
X168957380Y-149948809D02*
X168424047Y-148348809D01*
X167890714Y-149948809D01*
X166138333Y-148348809D02*
X166138333Y-149644047D01*
X166062142Y-149796428D01*
X165985952Y-149872619D01*
X165833571Y-149948809D01*
X165528809Y-149948809D01*
X165376428Y-149872619D01*
X165300238Y-149796428D01*
X165224047Y-149644047D01*
X165224047Y-148348809D01*
X164538333Y-149872619D02*
X164309761Y-149948809D01*
X163928809Y-149948809D01*
X163776428Y-149872619D01*
X163700238Y-149796428D01*
X163624047Y-149644047D01*
X163624047Y-149491666D01*
X163700238Y-149339285D01*
X163776428Y-149263095D01*
X163928809Y-149186904D01*
X164233571Y-149110714D01*
X164385952Y-149034523D01*
X164462142Y-148958333D01*
X164538333Y-148805952D01*
X164538333Y-148653571D01*
X164462142Y-148501190D01*
X164385952Y-148425000D01*
X164233571Y-148348809D01*
X163852619Y-148348809D01*
X163624047Y-148425000D01*
X162405000Y-149110714D02*
X162176428Y-149186904D01*
X162100238Y-149263095D01*
X162024047Y-149415476D01*
X162024047Y-149644047D01*
X162100238Y-149796428D01*
X162176428Y-149872619D01*
X162328809Y-149948809D01*
X162938333Y-149948809D01*
X162938333Y-148348809D01*
X162405000Y-148348809D01*
X162252619Y-148425000D01*
X162176428Y-148501190D01*
X162100238Y-148653571D01*
X162100238Y-148805952D01*
X162176428Y-148958333D01*
X162252619Y-149034523D01*
X162405000Y-149110714D01*
X162938333Y-149110714D01*
X160119285Y-149948809D02*
X160119285Y-148348809D01*
X159585952Y-149491666D01*
X159052619Y-148348809D01*
X159052619Y-149948809D01*
X157605000Y-149948809D02*
X157605000Y-149110714D01*
X157681190Y-148958333D01*
X157833571Y-148882142D01*
X158138333Y-148882142D01*
X158290714Y-148958333D01*
X157605000Y-149872619D02*
X157757380Y-149948809D01*
X158138333Y-149948809D01*
X158290714Y-149872619D01*
X158366904Y-149720238D01*
X158366904Y-149567857D01*
X158290714Y-149415476D01*
X158138333Y-149339285D01*
X157757380Y-149339285D01*
X157605000Y-149263095D01*
X156157380Y-149872619D02*
X156309761Y-149948809D01*
X156614523Y-149948809D01*
X156766904Y-149872619D01*
X156843095Y-149796428D01*
X156919285Y-149644047D01*
X156919285Y-149186904D01*
X156843095Y-149034523D01*
X156766904Y-148958333D01*
X156614523Y-148882142D01*
X156309761Y-148882142D01*
X156157380Y-148958333D01*
X155471666Y-149948809D02*
X155471666Y-148882142D01*
X155471666Y-149186904D02*
X155395476Y-149034523D01*
X155319285Y-148958333D01*
X155166904Y-148882142D01*
X155014523Y-148882142D01*
X154252619Y-149948809D02*
X154405000Y-149872619D01*
X154481190Y-149796428D01*
X154557380Y-149644047D01*
X154557380Y-149186904D01*
X154481190Y-149034523D01*
X154405000Y-148958333D01*
X154252619Y-148882142D01*
X154024047Y-148882142D01*
X153871666Y-148958333D01*
X153795476Y-149034523D01*
X153719285Y-149186904D01*
X153719285Y-149644047D01*
X153795476Y-149796428D01*
X153871666Y-149872619D01*
X154024047Y-149948809D01*
X154252619Y-149948809D01*
X153033571Y-148882142D02*
X153033571Y-150482142D01*
X153033571Y-148958333D02*
X152881190Y-148882142D01*
X152576428Y-148882142D01*
X152424047Y-148958333D01*
X152347857Y-149034523D01*
X152271666Y-149186904D01*
X152271666Y-149644047D01*
X152347857Y-149796428D01*
X152424047Y-149872619D01*
X152576428Y-149948809D01*
X152881190Y-149948809D01*
X153033571Y-149872619D01*
X150900238Y-149948809D02*
X150900238Y-149110714D01*
X150976428Y-148958333D01*
X151128809Y-148882142D01*
X151433571Y-148882142D01*
X151585952Y-148958333D01*
X150900238Y-149872619D02*
X151052619Y-149948809D01*
X151433571Y-149948809D01*
X151585952Y-149872619D01*
X151662142Y-149720238D01*
X151662142Y-149567857D01*
X151585952Y-149415476D01*
X151433571Y-149339285D01*
X151052619Y-149339285D01*
X150900238Y-149263095D01*
X149452619Y-149948809D02*
X149452619Y-148348809D01*
X149452619Y-149872619D02*
X149605000Y-149948809D01*
X149909761Y-149948809D01*
X150062142Y-149872619D01*
X150138333Y-149796428D01*
X150214523Y-149644047D01*
X150214523Y-149186904D01*
X150138333Y-149034523D01*
X150062142Y-148958333D01*
X149909761Y-148882142D01*
X149605000Y-148882142D01*
X149452619Y-148958333D01*
X147624047Y-148882142D02*
X147319285Y-149948809D01*
X147014523Y-149186904D01*
X146709761Y-149948809D01*
X146405000Y-148882142D01*
X145795476Y-149948809D02*
X145795476Y-148882142D01*
X145795476Y-148348809D02*
X145871666Y-148425000D01*
X145795476Y-148501190D01*
X145719285Y-148425000D01*
X145795476Y-148348809D01*
X145795476Y-148501190D01*
X145262142Y-148882142D02*
X144652619Y-148882142D01*
X145033571Y-148348809D02*
X145033571Y-149720238D01*
X144957380Y-149872619D01*
X144805000Y-149948809D01*
X144652619Y-149948809D01*
X144119285Y-149948809D02*
X144119285Y-148348809D01*
X143433571Y-149948809D02*
X143433571Y-149110714D01*
X143509761Y-148958333D01*
X143662142Y-148882142D01*
X143890714Y-148882142D01*
X144043095Y-148958333D01*
X144119285Y-149034523D01*
X140538333Y-149948809D02*
X141071666Y-149186904D01*
X141452619Y-149948809D02*
X141452619Y-148348809D01*
X140843095Y-148348809D01*
X140690714Y-148425000D01*
X140614523Y-148501190D01*
X140538333Y-148653571D01*
X140538333Y-148882142D01*
X140614523Y-149034523D01*
X140690714Y-149110714D01*
X140843095Y-149186904D01*
X141452619Y-149186904D01*
X139014523Y-148425000D02*
X139166904Y-148348809D01*
X139395476Y-148348809D01*
X139624047Y-148425000D01*
X139776428Y-148577380D01*
X139852619Y-148729761D01*
X139928809Y-149034523D01*
X139928809Y-149263095D01*
X139852619Y-149567857D01*
X139776428Y-149720238D01*
X139624047Y-149872619D01*
X139395476Y-149948809D01*
X139243095Y-149948809D01*
X139014523Y-149872619D01*
X138938333Y-149796428D01*
X138938333Y-149263095D01*
X139243095Y-149263095D01*
X137719285Y-149110714D02*
X137490714Y-149186904D01*
X137414523Y-149263095D01*
X137338333Y-149415476D01*
X137338333Y-149644047D01*
X137414523Y-149796428D01*
X137490714Y-149872619D01*
X137643095Y-149948809D01*
X138252619Y-149948809D01*
X138252619Y-148348809D01*
X137719285Y-148348809D01*
X137566904Y-148425000D01*
X137490714Y-148501190D01*
X137414523Y-148653571D01*
X137414523Y-148805952D01*
X137490714Y-148958333D01*
X137566904Y-149034523D01*
X137719285Y-149110714D01*
X138252619Y-149110714D01*
X134671666Y-149948809D02*
X135433571Y-149948809D01*
X135433571Y-148348809D01*
X134138333Y-149948809D02*
X134138333Y-148882142D01*
X134138333Y-148348809D02*
X134214523Y-148425000D01*
X134138333Y-148501190D01*
X134062142Y-148425000D01*
X134138333Y-148348809D01*
X134138333Y-148501190D01*
X132690714Y-148882142D02*
X132690714Y-150177380D01*
X132766904Y-150329761D01*
X132843095Y-150405952D01*
X132995476Y-150482142D01*
X133224047Y-150482142D01*
X133376428Y-150405952D01*
X132690714Y-149872619D02*
X132843095Y-149948809D01*
X133147857Y-149948809D01*
X133300238Y-149872619D01*
X133376428Y-149796428D01*
X133452619Y-149644047D01*
X133452619Y-149186904D01*
X133376428Y-149034523D01*
X133300238Y-148958333D01*
X133147857Y-148882142D01*
X132843095Y-148882142D01*
X132690714Y-148958333D01*
X131928809Y-149948809D02*
X131928809Y-148348809D01*
X131243095Y-149948809D02*
X131243095Y-149110714D01*
X131319285Y-148958333D01*
X131471666Y-148882142D01*
X131700238Y-148882142D01*
X131852619Y-148958333D01*
X131928809Y-149034523D01*
X130709761Y-148882142D02*
X130100238Y-148882142D01*
X130481190Y-148348809D02*
X130481190Y-149720238D01*
X130405000Y-149872619D01*
X130252619Y-149948809D01*
X130100238Y-149948809D01*
X129643095Y-149872619D02*
X129490714Y-149948809D01*
X129185952Y-149948809D01*
X129033571Y-149872619D01*
X128957380Y-149720238D01*
X128957380Y-149644047D01*
X129033571Y-149491666D01*
X129185952Y-149415476D01*
X129414523Y-149415476D01*
X129566904Y-149339285D01*
X129643095Y-149186904D01*
X129643095Y-149110714D01*
X129566904Y-148958333D01*
X129414523Y-148882142D01*
X129185952Y-148882142D01*
X129033571Y-148958333D01*
X126595476Y-150558333D02*
X126671666Y-150482142D01*
X126824047Y-150253571D01*
X126900238Y-150101190D01*
X126976428Y-149872619D01*
X127052619Y-149491666D01*
X127052619Y-149186904D01*
X126976428Y-148805952D01*
X126900238Y-148577380D01*
X126824047Y-148425000D01*
X126671666Y-148196428D01*
X126595476Y-148120238D01*
X125985952Y-149948809D02*
X125985952Y-148348809D01*
X125985952Y-149110714D02*
X125071666Y-149110714D01*
X125071666Y-149948809D02*
X125071666Y-148348809D01*
X124081190Y-149948809D02*
X124233571Y-149872619D01*
X124309761Y-149796428D01*
X124385952Y-149644047D01*
X124385952Y-149186904D01*
X124309761Y-149034523D01*
X124233571Y-148958333D01*
X124081190Y-148882142D01*
X123852619Y-148882142D01*
X123700238Y-148958333D01*
X123624047Y-149034523D01*
X123547857Y-149186904D01*
X123547857Y-149644047D01*
X123624047Y-149796428D01*
X123700238Y-149872619D01*
X123852619Y-149948809D01*
X124081190Y-149948809D01*
X122862142Y-148882142D02*
X122862142Y-150482142D01*
X122862142Y-148958333D02*
X122709761Y-148882142D01*
X122405000Y-148882142D01*
X122252619Y-148958333D01*
X122176428Y-149034523D01*
X122100238Y-149186904D01*
X122100238Y-149644047D01*
X122176428Y-149796428D01*
X122252619Y-149872619D01*
X122405000Y-149948809D01*
X122709761Y-149948809D01*
X122862142Y-149872619D01*
X120805000Y-149872619D02*
X120957380Y-149948809D01*
X121262142Y-149948809D01*
X121414523Y-149872619D01*
X121490714Y-149720238D01*
X121490714Y-149110714D01*
X121414523Y-148958333D01*
X121262142Y-148882142D01*
X120957380Y-148882142D01*
X120805000Y-148958333D01*
X120728809Y-149110714D01*
X120728809Y-149263095D01*
X121490714Y-149415476D01*
X120271666Y-148882142D02*
X119662142Y-148882142D01*
X120043095Y-149948809D02*
X120043095Y-148577380D01*
X119966904Y-148425000D01*
X119814523Y-148348809D01*
X119662142Y-148348809D01*
X118443095Y-148882142D02*
X118443095Y-149948809D01*
X119128809Y-148882142D02*
X119128809Y-149720238D01*
X119052619Y-149872619D01*
X118900238Y-149948809D01*
X118671666Y-149948809D01*
X118519285Y-149872619D01*
X118443095Y-149796428D01*
X117452619Y-149948809D02*
X117605000Y-149872619D01*
X117681190Y-149720238D01*
X117681190Y-148348809D01*
X116614523Y-149948809D02*
X116766904Y-149872619D01*
X116843095Y-149720238D01*
X116843095Y-148348809D01*
X116157380Y-148882142D02*
X115776428Y-149948809D01*
X115395476Y-148882142D02*
X115776428Y-149948809D01*
X115928809Y-150329761D01*
X116005000Y-150405952D01*
X116157380Y-150482142D01*
X114938333Y-150558333D02*
X114862142Y-150482142D01*
X114709761Y-150253571D01*
X114633571Y-150101190D01*
X114557380Y-149872619D01*
X114481190Y-149491666D01*
X114481190Y-149186904D01*
X114557380Y-148805952D01*
X114633571Y-148577380D01*
X114709761Y-148425000D01*
X114862142Y-148196428D01*
X114938333Y-148120238D01*
X151243095Y-150924809D02*
X151243095Y-152067666D01*
X151319285Y-152296238D01*
X151471666Y-152448619D01*
X151700238Y-152524809D01*
X151852619Y-152524809D01*
X149795476Y-152524809D02*
X149795476Y-151686714D01*
X149871666Y-151534333D01*
X150024047Y-151458142D01*
X150328809Y-151458142D01*
X150481190Y-151534333D01*
X149795476Y-152448619D02*
X149947857Y-152524809D01*
X150328809Y-152524809D01*
X150481190Y-152448619D01*
X150557380Y-152296238D01*
X150557380Y-152143857D01*
X150481190Y-151991476D01*
X150328809Y-151915285D01*
X149947857Y-151915285D01*
X149795476Y-151839095D01*
X148347857Y-152448619D02*
X148500238Y-152524809D01*
X148805000Y-152524809D01*
X148957380Y-152448619D01*
X149033571Y-152372428D01*
X149109761Y-152220047D01*
X149109761Y-151762904D01*
X149033571Y-151610523D01*
X148957380Y-151534333D01*
X148805000Y-151458142D01*
X148500238Y-151458142D01*
X148347857Y-151534333D01*
X147662142Y-152524809D02*
X147662142Y-150924809D01*
X147509761Y-151915285D02*
X147052619Y-152524809D01*
X147052619Y-151458142D02*
X147662142Y-152067666D01*
X145147857Y-152524809D02*
X145147857Y-150924809D01*
X144614523Y-152067666D01*
X144081190Y-150924809D01*
X144081190Y-152524809D01*
X143319285Y-152524809D02*
X143319285Y-151458142D01*
X143319285Y-150924809D02*
X143395476Y-151001000D01*
X143319285Y-151077190D01*
X143243095Y-151001000D01*
X143319285Y-150924809D01*
X143319285Y-151077190D01*
X142328809Y-152524809D02*
X142481190Y-152448619D01*
X142557380Y-152296238D01*
X142557380Y-150924809D01*
X141490714Y-152524809D02*
X141643095Y-152448619D01*
X141719285Y-152296238D01*
X141719285Y-150924809D01*
X140271666Y-152448619D02*
X140424047Y-152524809D01*
X140728809Y-152524809D01*
X140881190Y-152448619D01*
X140957380Y-152296238D01*
X140957380Y-151686714D01*
X140881190Y-151534333D01*
X140728809Y-151458142D01*
X140424047Y-151458142D01*
X140271666Y-151534333D01*
X140195476Y-151686714D01*
X140195476Y-151839095D01*
X140957380Y-151991476D01*
X139509761Y-151458142D02*
X139509761Y-152524809D01*
X139509761Y-151610523D02*
X139433571Y-151534333D01*
X139281190Y-151458142D01*
X139052619Y-151458142D01*
X138900238Y-151534333D01*
X138824047Y-151686714D01*
X138824047Y-152524809D01*
X136919285Y-151077190D02*
X136843095Y-151001000D01*
X136690714Y-150924809D01*
X136309761Y-150924809D01*
X136157380Y-151001000D01*
X136081190Y-151077190D01*
X136005000Y-151229571D01*
X136005000Y-151381952D01*
X136081190Y-151610523D01*
X136995476Y-152524809D01*
X136005000Y-152524809D01*
X135014523Y-150924809D02*
X134862142Y-150924809D01*
X134709761Y-151001000D01*
X134633571Y-151077190D01*
X134557380Y-151229571D01*
X134481190Y-151534333D01*
X134481190Y-151915285D01*
X134557380Y-152220047D01*
X134633571Y-152372428D01*
X134709761Y-152448619D01*
X134862142Y-152524809D01*
X135014523Y-152524809D01*
X135166904Y-152448619D01*
X135243095Y-152372428D01*
X135319285Y-152220047D01*
X135395476Y-151915285D01*
X135395476Y-151534333D01*
X135319285Y-151229571D01*
X135243095Y-151077190D01*
X135166904Y-151001000D01*
X135014523Y-150924809D01*
X133871666Y-151077190D02*
X133795476Y-151001000D01*
X133643095Y-150924809D01*
X133262142Y-150924809D01*
X133109761Y-151001000D01*
X133033571Y-151077190D01*
X132957380Y-151229571D01*
X132957380Y-151381952D01*
X133033571Y-151610523D01*
X133947857Y-152524809D01*
X132957380Y-152524809D01*
X132347857Y-151077190D02*
X132271666Y-151001000D01*
X132119285Y-150924809D01*
X131738333Y-150924809D01*
X131585952Y-151001000D01*
X131509761Y-151077190D01*
X131433571Y-151229571D01*
X131433571Y-151381952D01*
X131509761Y-151610523D01*
X132424047Y-152524809D01*
X131433571Y-152524809D01*
D11*
X164808904Y-49758571D02*
X164808904Y-49301428D01*
X164808904Y-49530000D02*
X164008904Y-49530000D01*
X164123190Y-49453809D01*
X164199380Y-49377619D01*
X164237476Y-49301428D01*
X165373095Y-49301428D02*
X165335000Y-49339523D01*
X165296904Y-49415714D01*
X165296904Y-49606190D01*
X165335000Y-49682380D01*
X165373095Y-49720476D01*
X165449285Y-49758571D01*
X165525476Y-49758571D01*
X165639761Y-49720476D01*
X166096904Y-49263333D01*
X166096904Y-49758571D01*
X166584904Y-49263333D02*
X166584904Y-49758571D01*
X166889666Y-49491904D01*
X166889666Y-49606190D01*
X166927761Y-49682380D01*
X166965857Y-49720476D01*
X167042047Y-49758571D01*
X167232523Y-49758571D01*
X167308714Y-49720476D01*
X167346809Y-49682380D01*
X167384904Y-49606190D01*
X167384904Y-49377619D01*
X167346809Y-49301428D01*
X167308714Y-49263333D01*
D13*
%TO.C,U1*%
X141841773Y-45533433D02*
X141841773Y-46253100D01*
X141799440Y-46337767D01*
X141757106Y-46380100D01*
X141672440Y-46422433D01*
X141503106Y-46422433D01*
X141418440Y-46380100D01*
X141376106Y-46337767D01*
X141333773Y-46253100D01*
X141333773Y-45533433D01*
X140444773Y-46422433D02*
X140952773Y-46422433D01*
X140698773Y-46422433D02*
X140698773Y-45533433D01*
X140783440Y-45660433D01*
X140868106Y-45745100D01*
X140952773Y-45787433D01*
D14*
X146815940Y-50782767D02*
X145037940Y-50782767D01*
X139068940Y-50020767D02*
X139068940Y-47480767D01*
D15*
X146104740Y-52730947D02*
X146104740Y-45377647D01*
D14*
X138179940Y-53452307D02*
X138179940Y-50782767D01*
X144148940Y-50020767D02*
X144148940Y-47480767D01*
X144148940Y-50020767D02*
X139068940Y-50020767D01*
X138179940Y-53452307D02*
X136401940Y-53452307D01*
D15*
X150498940Y-67800767D02*
X132701160Y-67800767D01*
D14*
X146815940Y-46718767D02*
X145037940Y-46718767D01*
X144148940Y-47480767D02*
X139068940Y-47480767D01*
X144148940Y-64625767D02*
X138433940Y-64625767D01*
X136401940Y-53452307D02*
X136401940Y-50782767D01*
X138179940Y-49385767D02*
X138179940Y-46718767D01*
X138433940Y-67165767D02*
X138433940Y-64625767D01*
X138179940Y-46718767D02*
X136401940Y-46718767D01*
X144148940Y-67165767D02*
X144148940Y-64625767D01*
X146815940Y-49385767D02*
X145037940Y-49385767D01*
X145037940Y-53452307D02*
X145037940Y-50782767D01*
D15*
X137105520Y-45377647D02*
X137105520Y-52730947D01*
D14*
X146815940Y-49385767D02*
X146815940Y-46718767D01*
X136401940Y-49385767D02*
X136401940Y-46718767D01*
D15*
X132701160Y-46802587D02*
X149828380Y-46802587D01*
X132701160Y-67800767D02*
X132701160Y-46802587D01*
D14*
X146815940Y-53452307D02*
X145037940Y-53452307D01*
X144148940Y-67165767D02*
X138433940Y-67165767D01*
D15*
X150498940Y-47473147D02*
X150498940Y-67800767D01*
D14*
X138179940Y-50782767D02*
X136401940Y-50782767D01*
X145037940Y-49385767D02*
X145037940Y-46718767D01*
X138179940Y-49385767D02*
X136401940Y-49385767D01*
D15*
X146099660Y-45377647D02*
X137105520Y-45377647D01*
D14*
X146815940Y-53452307D02*
X146815940Y-50782767D01*
D15*
X149828380Y-46802587D02*
X150498940Y-47473147D01*
X137105520Y-52730947D02*
X146104740Y-52730947D01*
D16*
X151514940Y-49639767D02*
G75*
G03*
X151514940Y-49639767I-127000J0D01*
G01*
%TD*%
M02*
