%TF.GenerationSoftware,KiCad,Pcbnew,(6.0.4)*%
%TF.CreationDate,2022-05-16T19:34:58+01:00*%
%TF.ProjectId,Macropad v2,4d616372-6f70-4616-9420-76322e6b6963,rev?*%
%TF.SameCoordinates,Original*%
%TF.FileFunction,Soldermask,Bot*%
%TF.FilePolarity,Negative*%
%FSLAX46Y46*%
G04 Gerber Fmt 4.6, Leading zero omitted, Abs format (unit mm)*
G04 Created by KiCad (PCBNEW (6.0.4)) date 2022-05-16 19:34:58*
%MOMM*%
%LPD*%
G01*
G04 APERTURE LIST*
%ADD10R,1.600000X1.600000*%
%ADD11O,1.600000X1.600000*%
%ADD12C,1.750000*%
%ADD13C,4.000000*%
%ADD14C,2.500000*%
%ADD15C,4.400000*%
%ADD16C,0.700000*%
%ADD17C,1.000000*%
%ADD18O,1.000000X1.000000*%
%ADD19R,1.000000X1.000000*%
%ADD20O,2.748280X1.998980*%
%ADD21O,1.016000X2.032000*%
%ADD22C,1.143000*%
G04 APERTURE END LIST*
D10*
%TO.C,D16*%
X122555000Y-85407500D03*
D11*
X114935000Y-85407500D03*
%TD*%
D12*
%TO.C,SW4*%
X123825000Y-143827500D03*
D13*
X118745000Y-143827500D03*
D12*
X113665000Y-143827500D03*
D14*
X114935000Y-141287500D03*
X121285000Y-138747500D03*
%TD*%
D10*
%TO.C,D23*%
X145415000Y-153987500D03*
D11*
X137795000Y-153987500D03*
%TD*%
D10*
%TO.C,D19*%
X122555000Y-153987500D03*
D11*
X114935000Y-153987500D03*
%TD*%
D15*
%TO.C,H8*%
X172085000Y-50482500D03*
D16*
X173251726Y-51649226D03*
X172085000Y-52132500D03*
X170918274Y-51649226D03*
X173735000Y-50482500D03*
X173251726Y-49315774D03*
X170918274Y-49315774D03*
X172085000Y-48832500D03*
X170435000Y-50482500D03*
%TD*%
%TO.C,H6*%
X151233274Y-99274226D03*
X152400000Y-99757500D03*
X153566726Y-96940774D03*
D15*
X152400000Y-98107500D03*
D16*
X152400000Y-96457500D03*
X151233274Y-96940774D03*
X154050000Y-98107500D03*
X153566726Y-99274226D03*
X150750000Y-98107500D03*
%TD*%
D17*
%TO.C,J1*%
X109220000Y-60325000D03*
D18*
X109220000Y-61595000D03*
D19*
X109220000Y-62865000D03*
%TD*%
D10*
%TO.C,D21*%
X145415000Y-108267500D03*
D11*
X137795000Y-108267500D03*
%TD*%
D13*
%TO.C,SW11*%
X164465000Y-120967500D03*
D12*
X159385000Y-120967500D03*
X169545000Y-120967500D03*
D14*
X160655000Y-118427500D03*
X167005000Y-115887500D03*
%TD*%
D16*
%TO.C,H1*%
X110204840Y-52084973D03*
X108554840Y-50434973D03*
X111854840Y-50434973D03*
X111371566Y-51601699D03*
X111371566Y-49268247D03*
X109038114Y-51601699D03*
X110204840Y-48784973D03*
D15*
X110204840Y-50434973D03*
D16*
X109038114Y-49268247D03*
%TD*%
D12*
%TO.C,SW8*%
X146685000Y-143827500D03*
D13*
X141605000Y-143827500D03*
D12*
X136525000Y-143827500D03*
D14*
X137795000Y-141287500D03*
X144145000Y-138747500D03*
%TD*%
D10*
%TO.C,D22*%
X145415000Y-131127500D03*
D11*
X137795000Y-131127500D03*
%TD*%
D17*
%TO.C,J2*%
X164460000Y-50800000D03*
D18*
X165730000Y-50800000D03*
X167000000Y-50800000D03*
%TD*%
D10*
%TO.C,D24*%
X168275000Y-85407500D03*
D11*
X160655000Y-85407500D03*
%TD*%
D10*
%TO.C,D17*%
X122555000Y-108267500D03*
D11*
X114935000Y-108267500D03*
%TD*%
D10*
%TO.C,D27*%
X168275000Y-153987500D03*
D11*
X160655000Y-153987500D03*
%TD*%
D13*
%TO.C,SW9*%
X164465000Y-75247500D03*
D12*
X169545000Y-75247500D03*
X159385000Y-75247500D03*
D14*
X160655000Y-72707500D03*
X167005000Y-70167500D03*
%TD*%
D16*
%TO.C,H4*%
X170918274Y-155154226D03*
X170435000Y-153987500D03*
X170918274Y-152820774D03*
X172085000Y-152337500D03*
X173251726Y-152820774D03*
X173735000Y-153987500D03*
D15*
X172085000Y-153987500D03*
D16*
X172085000Y-155637500D03*
X173251726Y-155154226D03*
%TD*%
D10*
%TO.C,D25*%
X168275000Y-108267500D03*
D11*
X160655000Y-108267500D03*
%TD*%
D10*
%TO.C,D26*%
X168275000Y-131127500D03*
D11*
X160655000Y-131127500D03*
%TD*%
D12*
%TO.C,SW7*%
X146685000Y-120967500D03*
D13*
X141605000Y-120967500D03*
D12*
X136525000Y-120967500D03*
D14*
X137795000Y-118427500D03*
X144145000Y-115887500D03*
%TD*%
D12*
%TO.C,SW2*%
X123825000Y-98107500D03*
D13*
X118745000Y-98107500D03*
D12*
X113665000Y-98107500D03*
D14*
X114935000Y-95567500D03*
X121285000Y-93027500D03*
%TD*%
D13*
%TO.C,SW12*%
X164465000Y-143827500D03*
D12*
X169545000Y-143827500D03*
X159385000Y-143827500D03*
D14*
X160655000Y-141287500D03*
X167005000Y-138747500D03*
%TD*%
D16*
%TO.C,H3*%
X111125000Y-155637500D03*
X111125000Y-152337500D03*
X109958274Y-155154226D03*
D15*
X111125000Y-153987500D03*
D16*
X112291726Y-152820774D03*
X112291726Y-155154226D03*
X112775000Y-153987500D03*
X109958274Y-152820774D03*
X109475000Y-153987500D03*
%TD*%
D12*
%TO.C,SW6*%
X136525000Y-98107500D03*
X146685000Y-98107500D03*
D13*
X141605000Y-98107500D03*
D14*
X137795000Y-95567500D03*
X144145000Y-93027500D03*
%TD*%
D10*
%TO.C,D20*%
X145415000Y-85407500D03*
D11*
X137795000Y-85407500D03*
%TD*%
D13*
%TO.C,SW3*%
X118745000Y-120967500D03*
D12*
X113665000Y-120967500D03*
X123825000Y-120967500D03*
D14*
X114935000Y-118427500D03*
X121285000Y-115887500D03*
%TD*%
D12*
%TO.C,SW5*%
X136525000Y-75247500D03*
X146685000Y-75247500D03*
D13*
X141605000Y-75247500D03*
D14*
X137795000Y-72707500D03*
X144145000Y-70167500D03*
%TD*%
D16*
%TO.C,H5*%
X131341726Y-99274226D03*
X129008274Y-96940774D03*
X130175000Y-99757500D03*
X131341726Y-96940774D03*
D15*
X130175000Y-98107500D03*
D16*
X129008274Y-99274226D03*
X128525000Y-98107500D03*
X130175000Y-96457500D03*
X131825000Y-98107500D03*
%TD*%
D17*
%TO.C,J3*%
X163195000Y-53975000D03*
D18*
X164465000Y-53975000D03*
X165735000Y-53975000D03*
X167005000Y-53975000D03*
%TD*%
D10*
%TO.C,D18*%
X122555000Y-131127500D03*
D11*
X114935000Y-131127500D03*
%TD*%
D12*
%TO.C,SW10*%
X159385000Y-98107500D03*
X169545000Y-98107500D03*
D13*
X164465000Y-98107500D03*
D14*
X160655000Y-95567500D03*
X167005000Y-93027500D03*
%TD*%
D13*
%TO.C,SW1*%
X118745000Y-75247500D03*
D12*
X113665000Y-75247500D03*
X123825000Y-75247500D03*
D14*
X114935000Y-72707500D03*
X121285000Y-70167500D03*
%TD*%
D20*
%TO.C,U1*%
X149665820Y-49682947D03*
X149665820Y-52222947D03*
X149665820Y-54762947D03*
X149665820Y-57302947D03*
X149665820Y-59842947D03*
X149665820Y-62382947D03*
X149665820Y-64922947D03*
X133501260Y-64922947D03*
X133501260Y-62382947D03*
X133501260Y-59842947D03*
X133501260Y-57302947D03*
X133501260Y-54762947D03*
X133501260Y-52222947D03*
X133501260Y-49682947D03*
D21*
X142798940Y-66000767D03*
X140248940Y-66000767D03*
D22*
X142800137Y-48996580D03*
X140260137Y-48996580D03*
X142800137Y-51536580D03*
X140260137Y-51536580D03*
%TD*%
M02*
