%TF.GenerationSoftware,KiCad,Pcbnew,(6.0.4)*%
%TF.CreationDate,2022-05-16T19:34:58+01:00*%
%TF.ProjectId,Macropad v2,4d616372-6f70-4616-9420-76322e6b6963,rev?*%
%TF.SameCoordinates,Original*%
%TF.FileFunction,Copper,L2,Bot*%
%TF.FilePolarity,Positive*%
%FSLAX46Y46*%
G04 Gerber Fmt 4.6, Leading zero omitted, Abs format (unit mm)*
G04 Created by KiCad (PCBNEW (6.0.4)) date 2022-05-16 19:34:58*
%MOMM*%
%LPD*%
G01*
G04 APERTURE LIST*
%TA.AperFunction,ComponentPad*%
%ADD10R,1.600000X1.600000*%
%TD*%
%TA.AperFunction,ComponentPad*%
%ADD11O,1.600000X1.600000*%
%TD*%
%TA.AperFunction,ComponentPad*%
%ADD12C,2.500000*%
%TD*%
%TA.AperFunction,ComponentPad*%
%ADD13C,4.400000*%
%TD*%
%TA.AperFunction,ComponentPad*%
%ADD14C,0.700000*%
%TD*%
%TA.AperFunction,ComponentPad*%
%ADD15C,1.000000*%
%TD*%
%TA.AperFunction,ComponentPad*%
%ADD16O,1.000000X1.000000*%
%TD*%
%TA.AperFunction,ComponentPad*%
%ADD17R,1.000000X1.000000*%
%TD*%
%TA.AperFunction,SMDPad,CuDef*%
%ADD18O,2.748280X1.998980*%
%TD*%
%TA.AperFunction,SMDPad,CuDef*%
%ADD19O,1.016000X2.032000*%
%TD*%
%TA.AperFunction,SMDPad,CuDef*%
%ADD20C,1.143000*%
%TD*%
%TA.AperFunction,ViaPad*%
%ADD21C,0.800000*%
%TD*%
%TA.AperFunction,Conductor*%
%ADD22C,0.250000*%
%TD*%
G04 APERTURE END LIST*
D10*
%TO.P,D16,1,K*%
%TO.N,Net-(D16-Pad1)*%
X122555000Y-85407500D03*
D11*
%TO.P,D16,2,A*%
%TO.N,Net-(D16-Pad2)*%
X114935000Y-85407500D03*
%TD*%
D12*
%TO.P,SW4,1,1*%
%TO.N,Net-(D19-Pad2)*%
X114935000Y-141287500D03*
%TO.P,SW4,2,2*%
%TO.N,Net-(J2-Pad3)*%
X121285000Y-138747500D03*
%TD*%
D10*
%TO.P,D23,1,K*%
%TO.N,Net-(D19-Pad2)*%
X145415000Y-153987500D03*
D11*
%TO.P,D23,2,A*%
%TO.N,Net-(D23-Pad2)*%
X137795000Y-153987500D03*
%TD*%
D10*
%TO.P,D19,1,K*%
%TO.N,Net-(D19-Pad1)*%
X122555000Y-153987500D03*
D11*
%TO.P,D19,2,A*%
%TO.N,Net-(D19-Pad2)*%
X114935000Y-153987500D03*
%TD*%
D13*
%TO.P,H8,1*%
%TO.N,N/C*%
X172085000Y-50482500D03*
D14*
X173251726Y-51649226D03*
X172085000Y-52132500D03*
X170918274Y-51649226D03*
X173735000Y-50482500D03*
X173251726Y-49315774D03*
X170918274Y-49315774D03*
X172085000Y-48832500D03*
X170435000Y-50482500D03*
%TD*%
%TO.P,H6,1*%
%TO.N,N/C*%
X151233274Y-99274226D03*
X152400000Y-99757500D03*
X153566726Y-96940774D03*
D13*
X152400000Y-98107500D03*
D14*
X152400000Y-96457500D03*
X151233274Y-96940774D03*
X154050000Y-98107500D03*
X153566726Y-99274226D03*
X150750000Y-98107500D03*
%TD*%
D15*
%TO.P,J1,1,Pin_1*%
%TO.N,+5V*%
X109220000Y-60325000D03*
D16*
%TO.P,J1,2,Pin_2*%
%TO.N,Net-(D1-Pad4)*%
X109220000Y-61595000D03*
D17*
%TO.P,J1,3,Pin_3*%
%TO.N,GND*%
X109220000Y-62865000D03*
%TD*%
D10*
%TO.P,D21,1,K*%
%TO.N,Net-(D17-Pad2)*%
X145415000Y-108267500D03*
D11*
%TO.P,D21,2,A*%
%TO.N,Net-(D21-Pad2)*%
X137795000Y-108267500D03*
%TD*%
D12*
%TO.P,SW11,1,1*%
%TO.N,Net-(D26-Pad2)*%
X160655000Y-118427500D03*
%TO.P,SW11,2,2*%
%TO.N,Net-(J2-Pad1)*%
X167005000Y-115887500D03*
%TD*%
D14*
%TO.P,H1,1*%
%TO.N,N/C*%
X110204840Y-52084973D03*
X108554840Y-50434973D03*
X111854840Y-50434973D03*
X111371566Y-51601699D03*
X111371566Y-49268247D03*
X109038114Y-51601699D03*
X110204840Y-48784973D03*
D13*
X110204840Y-50434973D03*
D14*
X109038114Y-49268247D03*
%TD*%
D12*
%TO.P,SW8,1,1*%
%TO.N,Net-(D23-Pad2)*%
X137795000Y-141287500D03*
%TO.P,SW8,2,2*%
%TO.N,Net-(J2-Pad2)*%
X144145000Y-138747500D03*
%TD*%
D10*
%TO.P,D22,1,K*%
%TO.N,Net-(D18-Pad2)*%
X145415000Y-131127500D03*
D11*
%TO.P,D22,2,A*%
%TO.N,Net-(D22-Pad2)*%
X137795000Y-131127500D03*
%TD*%
D15*
%TO.P,J2,1,Pin_1*%
%TO.N,Net-(SW10-Pad2)*%
X164460000Y-50800000D03*
D16*
%TO.P,J2,2,Pin_2*%
%TO.N,Net-(SW5-Pad2)*%
X165730000Y-50800000D03*
%TO.P,J2,3,Pin_3*%
%TO.N,Net-(SW1-Pad2)*%
X167000000Y-50800000D03*
%TD*%
D10*
%TO.P,D24,1,K*%
%TO.N,Net-(D20-Pad2)*%
X168275000Y-85407500D03*
D11*
%TO.P,D24,2,A*%
%TO.N,Net-(D24-Pad2)*%
X160655000Y-85407500D03*
%TD*%
D10*
%TO.P,D17,1,K*%
%TO.N,Net-(D17-Pad1)*%
X122555000Y-108267500D03*
D11*
%TO.P,D17,2,A*%
%TO.N,Net-(D17-Pad2)*%
X114935000Y-108267500D03*
%TD*%
D10*
%TO.P,D27,1,K*%
%TO.N,Net-(D23-Pad2)*%
X168275000Y-153987500D03*
D11*
%TO.P,D27,2,A*%
%TO.N,Net-(D27-Pad2)*%
X160655000Y-153987500D03*
%TD*%
D12*
%TO.P,SW9,1,1*%
%TO.N,Net-(D24-Pad2)*%
X160655000Y-72707500D03*
%TO.P,SW9,2,2*%
%TO.N,Net-(J2-Pad1)*%
X167005000Y-70167500D03*
%TD*%
D14*
%TO.P,H4,1*%
%TO.N,N/C*%
X170918274Y-155154226D03*
X170435000Y-153987500D03*
X170918274Y-152820774D03*
X172085000Y-152337500D03*
X173251726Y-152820774D03*
X173735000Y-153987500D03*
D13*
X172085000Y-153987500D03*
D14*
X172085000Y-155637500D03*
X173251726Y-155154226D03*
%TD*%
D10*
%TO.P,D25,1,K*%
%TO.N,Net-(D21-Pad2)*%
X168275000Y-108267500D03*
D11*
%TO.P,D25,2,A*%
%TO.N,Net-(D25-Pad2)*%
X160655000Y-108267500D03*
%TD*%
D10*
%TO.P,D26,1,K*%
%TO.N,Net-(D22-Pad2)*%
X168275000Y-131127500D03*
D11*
%TO.P,D26,2,A*%
%TO.N,Net-(D26-Pad2)*%
X160655000Y-131127500D03*
%TD*%
D12*
%TO.P,SW7,1,1*%
%TO.N,Net-(D22-Pad2)*%
X137795000Y-118427500D03*
%TO.P,SW7,2,2*%
%TO.N,Net-(J2-Pad2)*%
X144145000Y-115887500D03*
%TD*%
%TO.P,SW2,1,1*%
%TO.N,Net-(D17-Pad2)*%
X114935000Y-95567500D03*
%TO.P,SW2,2,2*%
%TO.N,Net-(J2-Pad3)*%
X121285000Y-93027500D03*
%TD*%
%TO.P,SW12,1,1*%
%TO.N,Net-(D27-Pad2)*%
X160655000Y-141287500D03*
%TO.P,SW12,2,2*%
%TO.N,Net-(J2-Pad1)*%
X167005000Y-138747500D03*
%TD*%
D14*
%TO.P,H3,1*%
%TO.N,N/C*%
X111125000Y-155637500D03*
X111125000Y-152337500D03*
X109958274Y-155154226D03*
D13*
X111125000Y-153987500D03*
D14*
X112291726Y-152820774D03*
X112291726Y-155154226D03*
X112775000Y-153987500D03*
X109958274Y-152820774D03*
X109475000Y-153987500D03*
%TD*%
D12*
%TO.P,SW6,1,1*%
%TO.N,Net-(D21-Pad2)*%
X137795000Y-95567500D03*
%TO.P,SW6,2,2*%
%TO.N,Net-(J2-Pad2)*%
X144145000Y-93027500D03*
%TD*%
D10*
%TO.P,D20,1,K*%
%TO.N,Net-(D16-Pad2)*%
X145415000Y-85407500D03*
D11*
%TO.P,D20,2,A*%
%TO.N,Net-(D20-Pad2)*%
X137795000Y-85407500D03*
%TD*%
D12*
%TO.P,SW3,1,1*%
%TO.N,Net-(D18-Pad2)*%
X114935000Y-118427500D03*
%TO.P,SW3,2,2*%
%TO.N,Net-(J2-Pad3)*%
X121285000Y-115887500D03*
%TD*%
%TO.P,SW5,1,1*%
%TO.N,Net-(D20-Pad2)*%
X137795000Y-72707500D03*
%TO.P,SW5,2,2*%
%TO.N,Net-(J2-Pad2)*%
X144145000Y-70167500D03*
%TD*%
D14*
%TO.P,H5,1*%
%TO.N,N/C*%
X131341726Y-99274226D03*
X129008274Y-96940774D03*
X130175000Y-99757500D03*
X131341726Y-96940774D03*
D13*
X130175000Y-98107500D03*
D14*
X129008274Y-99274226D03*
X128525000Y-98107500D03*
X130175000Y-96457500D03*
X131825000Y-98107500D03*
%TD*%
D15*
%TO.P,J3,1,Pin_1*%
%TO.N,Net-(D16-Pad1)*%
X163195000Y-53975000D03*
D16*
%TO.P,J3,2,Pin_2*%
%TO.N,Net-(D17-Pad1)*%
X164465000Y-53975000D03*
%TO.P,J3,3,Pin_3*%
%TO.N,Net-(D18-Pad1)*%
X165735000Y-53975000D03*
%TO.P,J3,4,Pin_4*%
%TO.N,Net-(D19-Pad1)*%
X167005000Y-53975000D03*
%TD*%
D10*
%TO.P,D18,1,K*%
%TO.N,Net-(D18-Pad1)*%
X122555000Y-131127500D03*
D11*
%TO.P,D18,2,A*%
%TO.N,Net-(D18-Pad2)*%
X114935000Y-131127500D03*
%TD*%
D12*
%TO.P,SW10,1,1*%
%TO.N,Net-(D25-Pad2)*%
X160655000Y-95567500D03*
%TO.P,SW10,2,2*%
%TO.N,Net-(J2-Pad1)*%
X167005000Y-93027500D03*
%TD*%
%TO.P,SW1,1,1*%
%TO.N,Net-(D16-Pad2)*%
X114935000Y-72707500D03*
%TO.P,SW1,2,2*%
%TO.N,Net-(J2-Pad3)*%
X121285000Y-70167500D03*
%TD*%
D18*
%TO.P,U1,1,PA02_A0_D0*%
%TO.N,Net-(J2-Pad1)*%
X149665820Y-49682947D03*
%TO.P,U1,2,PA4_A1_D1*%
%TO.N,Net-(J2-Pad2)*%
X149665820Y-52222947D03*
%TO.P,U1,3,PA10_A2_D2*%
%TO.N,Net-(J2-Pad3)*%
X149665820Y-54762947D03*
%TO.P,U1,4,PA11_A3_D3*%
%TO.N,Net-(D16-Pad1)*%
X149665820Y-57302947D03*
%TO.P,U1,5,PA8_A4_D4_SDA*%
%TO.N,Net-(D17-Pad1)*%
X149665820Y-59842947D03*
%TO.P,U1,6,PA9_A5_D5_SCL*%
%TO.N,Net-(D18-Pad1)*%
X149665820Y-62382947D03*
%TO.P,U1,7,PB08_A6_D6_TX*%
%TO.N,Net-(D19-Pad1)*%
X149665820Y-64922947D03*
%TO.P,U1,8,PB09_A7_D7_RX*%
%TO.N,Net-(D1-Pad4)*%
X133501260Y-64922947D03*
%TO.P,U1,9,PA7_A8_D8_SCK*%
%TO.N,unconnected-(U1-Pad9)*%
X133501260Y-62382947D03*
%TO.P,U1,10,PA5_A9_D9_MISO*%
%TO.N,unconnected-(U1-Pad10)*%
X133501260Y-59842947D03*
%TO.P,U1,11,PA6_A10_D10_MOSI*%
%TO.N,unconnected-(U1-Pad11)*%
X133501260Y-57302947D03*
%TO.P,U1,12,3V3*%
%TO.N,unconnected-(U1-Pad12)*%
X133501260Y-54762947D03*
%TO.P,U1,13,GND*%
%TO.N,GND*%
X133501260Y-52222947D03*
%TO.P,U1,14,5V*%
%TO.N,+5V*%
X133501260Y-49682947D03*
D19*
%TO.P,U1,15,5V*%
%TO.N,unconnected-(U1-Pad15)*%
X142798940Y-66000767D03*
%TO.P,U1,16,GND*%
%TO.N,unconnected-(U1-Pad16)*%
X140248940Y-66000767D03*
D20*
%TO.P,U1,17,PA31_SWDIO*%
%TO.N,unconnected-(U1-Pad17)*%
X142800137Y-48996580D03*
%TO.P,U1,18,PA30_SWCLK*%
%TO.N,unconnected-(U1-Pad18)*%
X140260137Y-48996580D03*
%TO.P,U1,19,RESET*%
%TO.N,unconnected-(U1-Pad19)*%
X142800137Y-51536580D03*
%TO.P,U1,20,GND*%
%TO.N,unconnected-(U1-Pad20)*%
X140260137Y-51536580D03*
%TD*%
D21*
%TO.N,+5V*%
X148590000Y-151447500D03*
X128270000Y-127952500D03*
X150495000Y-127952500D03*
X148590000Y-108267500D03*
X134620000Y-152082500D03*
X147955000Y-85407500D03*
X125095000Y-109537500D03*
X123190000Y-52387500D03*
X128270000Y-83502500D03*
%TO.N,GND*%
X158115000Y-134937500D03*
X140335000Y-89852500D03*
X158115000Y-154622500D03*
X135255000Y-132397500D03*
X134620000Y-153987500D03*
X158115000Y-89852500D03*
X136525000Y-113347500D03*
X158115000Y-113347500D03*
X135890000Y-48895000D03*
X157480000Y-62547500D03*
X122555000Y-63817500D03*
X166370000Y-63182500D03*
%TO.N,Net-(D10-Pad2)*%
X132715000Y-126047500D03*
X151765000Y-117157500D03*
%TO.N,Net-(D11-Pad2)*%
X146685000Y-134302500D03*
X130810000Y-136842500D03*
%TO.N,Net-(D10-Pad4)*%
X135255000Y-110172500D03*
X146685000Y-110172500D03*
%TO.N,Net-(D1-Pad4)*%
X121285000Y-55017000D03*
%TO.N,Net-(D12-Pad2)*%
X153035000Y-140652500D03*
X130810000Y-145732500D03*
%TO.N,Net-(D7-Pad2)*%
X137160000Y-87947500D03*
X147955000Y-87947500D03*
%TO.N,Net-(D8-Pad2)*%
X132715000Y-103822500D03*
X150495000Y-91757500D03*
%TO.N,Net-(D17-Pad1)*%
X147796250Y-70961250D03*
X150495000Y-72390000D03*
%TO.N,Net-(D18-Pad1)*%
X151765000Y-64135000D03*
X160020000Y-60960000D03*
%TO.N,Net-(D19-Pad1)*%
X149860000Y-66675000D03*
X158115000Y-66040000D03*
%TO.N,Net-(J2-Pad1)*%
X162560000Y-50800000D03*
X171450000Y-59690000D03*
%TO.N,Net-(J2-Pad2)*%
X161925000Y-65722500D03*
%TO.N,Net-(J2-Pad3)*%
X153670000Y-52387500D03*
%TD*%
D22*
%TO.N,+5V*%
X146139511Y-87222989D02*
X147955000Y-85407500D01*
X128270000Y-83502500D02*
X140970000Y-83502500D01*
X148590000Y-112077500D02*
X148590000Y-108267500D01*
X127635000Y-112077500D02*
X148590000Y-112077500D01*
X144780000Y-87312500D02*
X144869511Y-87222989D01*
X135255000Y-151447500D02*
X148590000Y-151447500D01*
X109220000Y-60325000D02*
X109220000Y-55880000D01*
X123190000Y-52387500D02*
X125894553Y-49682947D01*
X128270000Y-127952500D02*
X150495000Y-127952500D01*
X134620000Y-152082500D02*
X135255000Y-151447500D01*
X125095000Y-109537500D02*
X127635000Y-112077500D01*
X125894553Y-49682947D02*
X133501260Y-49682947D01*
X140970000Y-83502500D02*
X144780000Y-87312500D01*
X109220000Y-55880000D02*
X112712500Y-52387500D01*
X144869511Y-87222989D02*
X146139511Y-87222989D01*
X112712500Y-52387500D02*
X123190000Y-52387500D01*
%TO.N,GND*%
X122555000Y-63817500D02*
X122555000Y-56832500D01*
X157480000Y-62547500D02*
X165735000Y-62547500D01*
X155575000Y-148272500D02*
X155575000Y-137477500D01*
X142553304Y-138112500D02*
X144458304Y-136207500D01*
X144458304Y-136207500D02*
X156845000Y-136207500D01*
X127164553Y-52222947D02*
X133501260Y-52222947D01*
X135407947Y-52222947D02*
X133501260Y-52222947D01*
X155575000Y-137477500D02*
X156845000Y-136207500D01*
X135890000Y-48895000D02*
X135890000Y-51740894D01*
X140335000Y-89852500D02*
X158115000Y-89852500D01*
X126365000Y-137477500D02*
X127000000Y-138112500D01*
X127000000Y-138112500D02*
X142553304Y-138112500D01*
X122555000Y-56832500D02*
X127164553Y-52222947D01*
X158115000Y-154622500D02*
X158115000Y-148907500D01*
X165735000Y-62547500D02*
X166370000Y-63182500D01*
X132715000Y-150812500D02*
X132715000Y-152082500D01*
X155575000Y-148272500D02*
X135255000Y-148272500D01*
X156845000Y-136207500D02*
X158115000Y-134937500D01*
X135255000Y-132397500D02*
X126365000Y-132397500D01*
X132715000Y-152082500D02*
X134620000Y-153987500D01*
X126365000Y-132397500D02*
X126365000Y-137477500D01*
X158115000Y-148907500D02*
X157480000Y-148272500D01*
X135890000Y-51740894D02*
X135407947Y-52222947D01*
X132715000Y-150812500D02*
X135255000Y-148272500D01*
X136525000Y-113347500D02*
X158115000Y-113347500D01*
X157480000Y-148272500D02*
X155575000Y-148272500D01*
%TO.N,Net-(D10-Pad2)*%
X150495000Y-126047500D02*
X132715000Y-126047500D01*
X151130000Y-125412500D02*
X150495000Y-126047500D01*
X151130000Y-117792500D02*
X151130000Y-125412500D01*
X151765000Y-117157500D02*
X151130000Y-117792500D01*
%TO.N,Net-(D11-Pad2)*%
X133350000Y-134302500D02*
X146685000Y-134302500D01*
X130810000Y-136842500D02*
X133350000Y-134302500D01*
%TO.N,Net-(D10-Pad4)*%
X135255000Y-110172500D02*
X146685000Y-110172500D01*
%TO.N,Net-(D16-Pad1)*%
X140012586Y-68897500D02*
X143306618Y-72191531D01*
X157468394Y-53975000D02*
X154140447Y-57302947D01*
X122555000Y-85407500D02*
X122555000Y-71437500D01*
X125095000Y-68897500D02*
X140012586Y-68897500D01*
X143306618Y-72191531D02*
X148470969Y-72191531D01*
X163195000Y-53975000D02*
X157468394Y-53975000D01*
X154940000Y-65722500D02*
X154940000Y-58102500D01*
X154140447Y-57302947D02*
X149665820Y-57302947D01*
X154940000Y-58102500D02*
X154140447Y-57302947D01*
X122555000Y-71437500D02*
X125095000Y-68897500D01*
X148470969Y-72191531D02*
X154940000Y-65722500D01*
%TO.N,Net-(D16-Pad2)*%
X116059511Y-86532011D02*
X114935000Y-85407500D01*
X124460000Y-82232500D02*
X124460000Y-85751522D01*
X142240000Y-82232500D02*
X124460000Y-82232500D01*
X145415000Y-85407500D02*
X142240000Y-82232500D01*
X123679511Y-86532011D02*
X116059511Y-86532011D01*
X124460000Y-85751522D02*
X123679511Y-86532011D01*
%TO.N,Net-(D17-Pad2)*%
X116059511Y-107142989D02*
X114935000Y-108267500D01*
X145415000Y-108267500D02*
X144290489Y-107142989D01*
X144290489Y-107142989D02*
X116059511Y-107142989D01*
%TO.N,Net-(D18-Pad2)*%
X145415000Y-131127500D02*
X144290489Y-130002989D01*
X116059511Y-130002989D02*
X114935000Y-131127500D01*
X144290489Y-130002989D02*
X116059511Y-130002989D01*
%TO.N,Net-(D19-Pad2)*%
X145415000Y-153987500D02*
X143510000Y-155892500D01*
X143510000Y-155892500D02*
X116840000Y-155892500D01*
X116840000Y-155892500D02*
X114935000Y-153987500D01*
%TO.N,Net-(D20-Pad2)*%
X167005000Y-84137500D02*
X147136919Y-84137500D01*
X137795000Y-74795581D02*
X137795000Y-72707500D01*
X168275000Y-85407500D02*
X167005000Y-84137500D01*
X147136919Y-84137500D02*
X137795000Y-74795581D01*
%TO.N,Net-(D21-Pad2)*%
X168275000Y-108267500D02*
X166700969Y-106693469D01*
X137795000Y-106693469D02*
X137795000Y-95567500D01*
X166700969Y-106693469D02*
X137795000Y-106693469D01*
%TO.N,Net-(D22-Pad2)*%
X167150489Y-132252011D02*
X138919511Y-132252011D01*
X138919511Y-132252011D02*
X137795000Y-131127500D01*
X168275000Y-131127500D02*
X167150489Y-132252011D01*
%TO.N,Net-(D23-Pad2)*%
X139065000Y-152082500D02*
X139065000Y-152717500D01*
X139065000Y-152717500D02*
X137795000Y-153987500D01*
X166370000Y-155892500D02*
X147955000Y-155892500D01*
X147320000Y-155257500D02*
X147320000Y-152082500D01*
X147320000Y-152082500D02*
X139065000Y-152082500D01*
X168275000Y-153987500D02*
X166370000Y-155892500D01*
X147955000Y-155892500D02*
X147320000Y-155257500D01*
%TO.N,Net-(D1-Pad4)*%
X112395000Y-56197500D02*
X112395000Y-59690000D01*
X121285000Y-55017000D02*
X113575500Y-55017000D01*
X111760000Y-61595000D02*
X112395000Y-60960000D01*
X112395000Y-59690000D02*
X112395000Y-64452500D01*
X112395000Y-64452500D02*
X112865447Y-64922947D01*
X113575500Y-55017000D02*
X112395000Y-56197500D01*
X109220000Y-61595000D02*
X111760000Y-61595000D01*
X112395000Y-60960000D02*
X112395000Y-59690000D01*
X112865447Y-64922947D02*
X133501260Y-64922947D01*
%TO.N,Net-(D12-Pad2)*%
X131279521Y-146202021D02*
X130810000Y-145732500D01*
X153035000Y-140652500D02*
X147485479Y-146202021D01*
X147485479Y-146202021D02*
X131279521Y-146202021D01*
%TO.N,Net-(D7-Pad2)*%
X137160000Y-87947500D02*
X147955000Y-87947500D01*
%TO.N,Net-(D8-Pad2)*%
X150495000Y-91757500D02*
X147650489Y-94602011D01*
X139056207Y-94602011D02*
X138116696Y-93662500D01*
X138116696Y-93662500D02*
X133350000Y-93662500D01*
X147650489Y-94602011D02*
X139056207Y-94602011D01*
X133350000Y-93662500D02*
X132715000Y-94297500D01*
X132715000Y-94297500D02*
X132715000Y-103822500D01*
%TO.N,Net-(D17-Pad1)*%
X140013304Y-68262500D02*
X143492815Y-71742011D01*
X149225000Y-69532500D02*
X149860717Y-69532500D01*
X118110000Y-108267500D02*
X115570000Y-110807500D01*
X149860717Y-69532500D02*
X153670000Y-65723217D01*
X111125000Y-110807500D02*
X111125000Y-68262500D01*
X153670000Y-60642500D02*
X152870447Y-59842947D01*
X122555000Y-108267500D02*
X118110000Y-108267500D01*
X147015489Y-71742011D02*
X147796250Y-70961250D01*
X143492815Y-71742011D02*
X147015489Y-71742011D01*
X151765000Y-72390000D02*
X150495000Y-72390000D01*
X156755489Y-67399511D02*
X151765000Y-72390000D01*
X115570000Y-110807500D02*
X111125000Y-110807500D01*
X153670000Y-65723217D02*
X153670000Y-60642500D01*
X156755489Y-61684511D02*
X156755489Y-67399511D01*
X152870447Y-59842947D02*
X149665820Y-59842947D01*
X164465000Y-53975000D02*
X156755489Y-61684511D01*
X147796250Y-70961250D02*
X149225000Y-69532500D01*
X111125000Y-68262500D02*
X140013304Y-68262500D01*
%TO.N,Net-(D18-Pad1)*%
X110490000Y-67628218D02*
X110490359Y-67627859D01*
X153035000Y-65722500D02*
X153035000Y-62547500D01*
X153035000Y-62547500D02*
X152870447Y-62382947D01*
X150012947Y-62382947D02*
X149665820Y-62382947D01*
X122555000Y-131127500D02*
X119380000Y-134302500D01*
X151129641Y-67627859D02*
X153035000Y-65722500D01*
X151765000Y-64135000D02*
X150012947Y-62382947D01*
X165735000Y-53975000D02*
X165735000Y-55245000D01*
X111125000Y-134302500D02*
X110490000Y-133667500D01*
X110490000Y-133667500D02*
X110490000Y-67628218D01*
X165735000Y-55245000D02*
X160020000Y-60960000D01*
X119380000Y-134302500D02*
X111125000Y-134302500D01*
X110490359Y-67627859D02*
X151129641Y-67627859D01*
X152870447Y-62382947D02*
X149665820Y-62382947D01*
%TO.N,Net-(D19-Pad1)*%
X109855000Y-148272500D02*
X110490000Y-148907500D01*
X149860000Y-64452500D02*
X136218789Y-64452500D01*
X167005000Y-62230000D02*
X168275000Y-63500000D01*
X110490000Y-148907500D02*
X120650000Y-148907500D01*
X167005000Y-53975000D02*
X167005000Y-62230000D01*
X166777011Y-64997989D02*
X159792011Y-64997989D01*
X168275000Y-63500000D02*
X166777011Y-64997989D01*
X136218789Y-64452500D02*
X133678789Y-66992500D01*
X133678789Y-66992500D02*
X110490000Y-66992500D01*
X149860000Y-66675000D02*
X149860000Y-65117127D01*
X159792011Y-64997989D02*
X158750000Y-66040000D01*
X109855000Y-67627500D02*
X109855000Y-148272500D01*
X110490000Y-66992500D02*
X109855000Y-67627500D01*
X149860000Y-65117127D02*
X149665820Y-64922947D01*
X158750000Y-66040000D02*
X158115000Y-66040000D01*
X122555000Y-150812500D02*
X122555000Y-153987500D01*
X120650000Y-148907500D02*
X122555000Y-150812500D01*
%TO.N,Net-(J2-Pad1)*%
X172720000Y-64452500D02*
X172720000Y-59690000D01*
X163825000Y-51435000D02*
X164460000Y-50800000D01*
X167005000Y-70167500D02*
X172720000Y-64452500D01*
X152400000Y-48260000D02*
X150977053Y-49682947D01*
X172720000Y-59690000D02*
X172720000Y-55562500D01*
X163195000Y-51435000D02*
X162560000Y-50800000D01*
X169545000Y-48260000D02*
X152400000Y-48260000D01*
X171450000Y-59690000D02*
X172720000Y-59690000D01*
X172720000Y-55562500D02*
X169545000Y-52387500D01*
X163195000Y-51435000D02*
X163825000Y-51435000D01*
X169545000Y-52387500D02*
X169545000Y-48260000D01*
X150977053Y-49682947D02*
X149665820Y-49682947D01*
%TO.N,Net-(J2-Pad2)*%
X170180000Y-54292500D02*
X168910000Y-53022500D01*
X170180000Y-64452500D02*
X170180000Y-54292500D01*
X161925000Y-65722500D02*
X168910000Y-65722500D01*
X168910000Y-53022500D02*
X168910000Y-48895000D01*
X165730000Y-48900000D02*
X165735000Y-48895000D01*
X165730000Y-50800000D02*
X165730000Y-48900000D01*
X152993767Y-48895000D02*
X149665820Y-52222947D01*
X168910000Y-65722500D02*
X170180000Y-64452500D01*
X168910000Y-48895000D02*
X165735000Y-48895000D01*
X165735000Y-48895000D02*
X152993767Y-48895000D01*
%TO.N,Net-(J2-Pad3)*%
X166175489Y-51624511D02*
X167000000Y-50800000D01*
X153670000Y-52387500D02*
X151294553Y-54762947D01*
X153797989Y-52259511D02*
X153670000Y-52387500D01*
X151294553Y-54762947D02*
X149665820Y-54762947D01*
X166175489Y-52259511D02*
X153797989Y-52259511D01*
X166175489Y-52259511D02*
X166175489Y-51624511D01*
%TD*%
M02*
