M48
; DRILL file {KiCad (6.0.4)} date Mon May 16 19:35:04 2022
; FORMAT={-:-/ absolute / inch / decimal}
; #@! TF.CreationDate,2022-05-16T19:35:04+01:00
; #@! TF.GenerationSoftware,Kicad,Pcbnew,(6.0.4)
; #@! TF.FileFunction,NonPlated,1,2,NPTH
FMAT,2
INCH
; #@! TA.AperFunction,NonPlated,NPTH,ComponentDrill
T1C0.0689
; #@! TA.AperFunction,NonPlated,NPTH,ComponentDrill
T2C0.1575
%
G90
G05
T1
X4.475Y-2.9625
X4.475Y-3.8625
X4.475Y-4.7625
X4.475Y-5.6625
X4.875Y-2.9625
X4.875Y-3.8625
X4.875Y-4.7625
X4.875Y-5.6625
X5.375Y-2.9625
X5.375Y-3.8625
X5.375Y-4.7625
X5.375Y-5.6625
X5.775Y-2.9625
X5.775Y-3.8625
X5.775Y-4.7625
X5.775Y-5.6625
X6.275Y-2.9625
X6.275Y-3.8625
X6.275Y-4.7625
X6.275Y-5.6625
X6.675Y-2.9625
X6.675Y-3.8625
X6.675Y-4.7625
X6.675Y-5.6625
T2
X4.675Y-2.9625
X4.675Y-3.8625
X4.675Y-4.7625
X4.675Y-5.6625
X5.575Y-2.9625
X5.575Y-3.8625
X5.575Y-4.7625
X5.575Y-5.6625
X6.475Y-2.9625
X6.475Y-3.8625
X6.475Y-4.7625
X6.475Y-5.6625
T0
M30
